<?xml version="1.0" encoding="UTF-8" standalone="no"?>
<!-- Created with Inkscape (http://www.inkscape.org/) -->

<svg
   xmlns:dc="http://purl.org/dc/elements/1.1/"
   xmlns:cc="http://creativecommons.org/ns#"
   xmlns:rdf="http://www.w3.org/1999/02/22-rdf-syntax-ns#"
   xmlns:svg="http://www.w3.org/2000/svg"
   xmlns="http://www.w3.org/2000/svg"
   xmlns:sodipodi="http://sodipodi.sourceforge.net/DTD/sodipodi-0.dtd"
   xmlns:inkscape="http://www.inkscape.org/namespaces/inkscape"
   width="66.542747mm"
   height="57.38187mm"
   viewBox="0 0 66.542747 57.38187"
   version="1.1"
   id="svg3739"
   inkscape:version="0.92.4 (5da689c313, 2019-01-14)"
   sodipodi:docname="icon.svg">
  <defs
     id="defs3733" />
  <sodipodi:namedview
     id="base"
     pagecolor="#ffffff"
     bordercolor="#666666"
     borderopacity="1.0"
     inkscape:pageopacity="0.0"
     inkscape:pageshadow="2"
     inkscape:zoom="0.24748737"
     inkscape:cx="-206.05719"
     inkscape:cy="-86.199886"
     inkscape:document-units="mm"
     inkscape:current-layer="layer1"
     showgrid="false"
     fit-margin-top="0"
     fit-margin-left="0"
     fit-margin-right="0"
     fit-margin-bottom="0"
     inkscape:window-width="659"
     inkscape:window-height="427"
     inkscape:window-x="580"
     inkscape:window-y="95"
     inkscape:window-maximized="0" />
  <metadata
     id="metadata3736">
    <rdf:RDF>
      <cc:Work
         rdf:about="">
        <dc:format>image/svg+xml</dc:format>
        <dc:type
           rdf:resource="http://purl.org/dc/dcmitype/StillImage" />
        <dc:title></dc:title>
      </cc:Work>
    </rdf:RDF>
  </metadata>
  <g
     inkscape:label="Camada 1"
     inkscape:groupmode="layer"
     id="layer1"
     transform="translate(-31.597665,-163.54376)">
    <path
       style="fill:#f6a560;stroke-width:0.26458338"
       d="m 33.910266,220.86367 c -2.477352,-0.93112 -2.577182,-1.27315 -2.577182,-8.82915 0,-7.24612 0.01519,-7.3035 2.012101,-7.60296 1.726052,-0.25884 2.45645,-0.6482 2.968681,-1.58254 0.398719,-0.72729 0.456451,-2.6531 0.575468,-19.19693 0.124762,-17.34148 0.160203,-18.42969 0.622512,-19.11122 0.27995,-0.41269 0.90415,-0.83765 1.455208,-0.99071 1.584942,-0.44023 12.04314,-0.34771 13.153843,0.11637 1.63925,0.68492 1.701768,1.09808 1.701768,11.24582 v 9.00433 h -2.248958 -2.248951 v -1.41953 c 0,-1.72789 -0.702662,-2.81381 -1.820719,-2.81381 -1.289431,0 -1.735172,0.5743 -1.882431,2.42533 l -0.133311,1.67572 -2.315109,0.0764 -2.315102,0.0764 v 2.23866 2.23865 h 1.287233 c 1.767969,0 2.68152,0.72112 2.68152,2.11667 0,1.39555 -0.913551,2.11667 -2.68152,2.11667 h -1.287233 v 2.24896 2.24895 h 2.248961 2.248961 v -1.40531 c 0,-1.04599 0.137171,-1.55256 0.536491,-1.98117 0.808479,-0.86781 1.76217,-1.01156 2.595387,-0.39122 0.609312,0.45364 0.715222,0.7445 0.783352,2.15114 l 0.0788,1.62656 h 2.23634 2.23633 v 3.27264 c 0,3.80504 -0.5275,7.20674 -1.499378,9.66906 -1.9441,4.92553 -6.044192,8.90515 -10.67145,10.35792 -2.254031,0.70768 -6.378602,0.93049 -7.741571,0.41821 z m 26.032061,-2.27404 c -1.226572,-0.30717 -1.906522,-1.06914 -2.1697,-2.43145 -0.12251,-0.63413 -0.227931,-5.28444 -0.23427,-10.33403 l -0.01151,-9.18106 -1.52136,-0.0794 -1.521351,-0.0793 -0.0767,-2.01787 -0.0767,-2.01788 -1.315051,-0.12636 c -1.616169,-0.15529 -2.36802,-0.77287 -2.36802,-1.94511 0,-1.18798 1.006142,-1.96258 2.549231,-1.96258 h 1.154941 v -2.11666 -2.11667 h 1.5875 1.5875 l 0.01151,-8.53281 c 0.006,-4.69305 0.11189,-9.05238 0.234561,-9.68741 0.12958,-0.67078 0.51544,-1.44686 0.92084,-1.85208 l 0.697799,-0.69749 11.833781,0.0111 c 11.351368,0.0106 11.91837,0.0347 13.90864,0.59071 4.434767,1.23894 7.584607,3.51961 9.131507,6.61178 1.95788,3.91367 1.98479,9.17135 0.0664,12.97168 -0.45503,0.90141 -1.59997,2.45797 -2.54431,3.45902 -0.94434,1.00105 -1.71699,1.88656 -1.71699,1.9678 0,0.0812 0.54856,0.42166 1.21902,0.75651 1.9932,0.99545 4.3986,3.39966 5.50182,5.49909 2.37639,4.52228 2.3093,10.76757 -0.1659,15.44354 -1.17754,2.22452 -3.84685,4.84146 -6.18803,6.06662 -2.51313,1.31515 -4.8741,1.83339 -8.568988,1.88095 -4.879301,0.0628 -5.15937,-0.32287 -5.15937,-7.10459 0,-6.31487 0.220961,-6.7039 4.11289,-7.24123 2.379861,-0.32857 3.163149,-0.99901 3.163149,-2.70743 0,-1.53533 -0.822478,-2.26072 -2.808769,-2.4772 -3.22498,-0.35149 -4.017071,-0.88564 -4.35352,-2.93583 -0.301829,-1.83924 -0.292741,-7.61774 0.0149,-9.49666 0.291769,-1.7818 0.773808,-2.3988 2.276618,-2.91407 1.349131,-0.46258 2.08058,-1.45588 2.08058,-2.82538 0,-0.8773 -0.157189,-1.21452 -0.858049,-1.84074 -0.82526,-0.73735 -0.959091,-0.76667 -3.499731,-0.76667 h -2.641659 v 18.87823 c 0,12.77923 -0.0919,19.14177 -0.284379,19.69399 -0.57259,1.64254 -1.074492,1.76661 -7.388543,1.82642 -3.128697,0.0296 -6.089848,-0.0466 -6.580338,-0.16944 z"
       id="path3754"
       inkscape:connector-curvature="0"
       sodipodi:nodetypes="csscsccsscccssscccccssscccccscsccccscccccccccccccsscccccccscccccsscssccssscsccscscscccc" />
    <path
       style="fill:#a0a0a0;stroke-width:0.26458338"
       d="m 33.910266,220.86367 c -2.477352,-0.93112 -2.577182,-1.27315 -2.577182,-8.82915 0,-7.24612 0.01519,-7.3035 2.012101,-7.60296 1.726052,-0.25884 2.45645,-0.6482 2.968681,-1.58254 0.398719,-0.72729 0.456451,-2.6531 0.575468,-19.19693 0.124762,-17.34148 0.160203,-18.42969 0.622512,-19.11122 0.27995,-0.41269 0.90415,-0.83765 1.455208,-0.99071 1.584942,-0.44023 12.04314,-0.34771 13.153843,0.11637 1.63925,0.68492 1.701768,1.09808 1.701768,11.24582 v 9.00433 h -2.248958 -2.248951 v -1.41953 c 0,-1.72789 -0.702662,-2.81381 -1.820719,-2.81381 -1.289431,0 -1.735172,0.5743 -1.882431,2.42533 l -0.133311,1.67572 -2.315109,0.0764 -2.315102,0.0764 v 2.23866 2.23865 h 1.287233 c 1.767969,0 2.68152,0.72112 2.68152,2.11667 0,1.39555 -0.913551,2.11667 -2.68152,2.11667 h -1.287233 v 2.24896 2.24895 h 2.248961 2.248961 v -1.40531 c 0,-1.04599 0.137171,-1.55256 0.536491,-1.98117 0.808479,-0.86781 1.76217,-1.01156 2.595387,-0.39122 0.609312,0.45364 0.715222,0.7445 0.783352,2.15114 l 0.0788,1.62656 h 2.23634 2.23633 v 3.27264 c 0,3.80504 -0.5275,7.20674 -1.499378,9.66906 -1.9441,4.92553 -6.044192,8.90515 -10.67145,10.35792 -2.254031,0.70768 -6.378602,0.93049 -7.741571,0.41821 z m 25.600941,-2.5367 c -0.291042,-0.11912 -0.767292,-0.48113 -1.058331,-0.80447 -0.506809,-0.56305 -0.532339,-1.01661 -0.604271,-10.73446 l -0.0751,-10.14658 -1.644689,-0.0785 -1.644679,-0.0785 -0.0767,-2.01787 -0.0767,-2.01788 -1.31505,-0.12636 c -1.616181,-0.15529 -2.368032,-0.77287 -2.368032,-1.94511 0,-1.18798 1.006142,-1.96258 2.549232,-1.96258 h 1.15494 v -2.10404 -2.10404 l 1.653641,-0.0788 1.653648,-0.0788 0.132292,-9.39271 c 0.0728,-5.16599 0.236019,-9.60547 0.362789,-9.86551 0.58388,-1.19766 1.08686,-1.24699 12.715571,-1.24699 12.57909,0 13.872239,0.14046 17.595257,1.9111 4.73617,2.25249 7.1618,6.27103 7.1618,11.86498 0,4.07904 -1.55286,7.52042 -4.69636,10.40784 -0.61846,0.56809 -1.12448,1.13163 -1.12448,1.25232 0,0.12069 0.56555,0.50851 1.25678,0.86184 2.75193,1.40667 5.14979,4.09734 6.32279,7.09491 0.70663,1.80578 0.75481,2.17375 0.75481,5.76534 0,3.08066 -0.099,4.12315 -0.5023,5.29167 -0.86929,2.51842 -1.82012,4.0345 -3.75336,5.98465 -3.09817,3.12528 -7.03353,4.59869 -12.282779,4.59869 -2.830269,0 -3.826208,-0.39272 -4.384489,-1.72887 -0.480309,-1.14955 -0.503299,-9.05513 -0.0304,-10.44197 0.385011,-1.12898 1.672241,-1.85108 3.300862,-1.85167 2.644669,-0.001 4.154429,-1.61538 3.512939,-3.75646 -0.377441,-1.25982 -1.218509,-1.71894 -3.594899,-1.96241 -1.432592,-0.14677 -1.960822,-0.33176 -2.61384,-0.91537 l -0.81843,-0.73141 v -5.8212 c 0,-5.80364 0.0021,-5.82326 0.644229,-6.50681 0.354319,-0.37709 1.07956,-0.80284 1.61163,-0.94611 1.29931,-0.34987 1.880801,-1.06037 2.042591,-2.49576 0.27441,-2.43457 -1.106522,-3.38087 -4.767382,-3.26692 l -2.441479,0.076 -0.13825,19.57916 c -0.076,10.76855 -0.165341,19.61068 -0.198441,19.64921 -0.0331,0.0385 -0.44714,0.30596 -0.92008,0.59432 -0.792279,0.48306 -1.328079,0.52305 -6.813029,0.50851 -3.274211,-0.009 -6.191239,-0.11325 -6.482289,-0.23237 z"
       id="path3752"
       inkscape:connector-curvature="0"
       sodipodi:nodetypes="csscsccsscccssscccccssscccccscsccccsccccccsccccccsscccccccssscsccsccscccccccsccccccccccc" />
    <path
       style="fill:#5d91b4;stroke-width:0.26458338"
       d="m 34.192116,220.86736 c -2.700919,-0.75869 -2.859032,-1.24434 -2.859032,-8.78145 0,-6.96713 0.140962,-7.51785 1.926731,-7.52768 1.12913,-0.006 2.477441,-0.67339 3.01363,-1.49122 0.45334,-0.69147 0.491871,-1.88948 0.615889,-19.15022 0.12183,-16.95673 0.168902,-18.46846 0.595313,-19.11893 0.87199,-1.33018 1.193019,-1.38639 7.918098,-1.38639 5.943621,0 6.302711,0.0284 7.011461,0.55395 1.290201,0.95676 1.37737,1.6462 1.393529,11.02157 l 0.0149,8.6651 h -2.248961 -2.248951 v -1.42589 c 0,-1.60263 -0.490969,-2.41762 -1.616419,-2.6832 -1.17313,-0.27683 -2.08272,0.75642 -2.269421,2.57796 l -0.154929,1.51158 -2.2791,0.0759 -2.279089,0.0759 v 2.38125 2.38125 l 1.67572,0.13331 c 1.839158,0.14632 2.425319,0.59368 2.425319,1.85106 0,1.25738 -0.586161,1.70475 -2.425319,1.85106 l -1.67572,0.13332 v 2.38125 2.38125 l 2.282589,0.076 2.28259,0.076 0.114829,-1.58741 c 0.136782,-1.89097 0.696182,-2.66558 1.925011,-2.66558 1.40258,0 1.842561,0.53546 1.99291,2.42533 l 0.133321,1.67572 2.18281,0.0768 2.18281,0.0769 v 2.74828 c 0,7.2821 -1.777611,12.24068 -5.824731,16.24786 -1.992299,1.97264 -4.54206,3.4802 -6.944429,4.10594 -2.251501,0.58644 -5.413682,0.74012 -6.861392,0.33345 z m 25.319091,-2.54039 c -0.291042,-0.11912 -0.767292,-0.48113 -1.058331,-0.80447 -0.506831,-0.56308 -0.532339,-1.01663 -0.604311,-10.74685 l -0.0751,-10.15897 h -1.567799 -1.56781 l -0.0768,-2.18281 -0.0768,-2.18282 -1.546479,-0.13748 c -1.110502,-0.0987 -1.651281,-0.28081 -1.918232,-0.64588 -0.485968,-0.6646 -0.471268,-1.47035 0.0401,-2.20047 0.339201,-0.48429 0.66411,-0.58804 1.841381,-0.58804 h 1.429509 l 0.0768,-2.18281 0.0769,-2.18282 1.653652,-0.0788 1.65364,-0.0788 v -9.07602 c 0,-5.96013 0.100679,-9.36483 0.29327,-9.91729 0.56003,-1.60649 0.65836,-1.61894 12.78509,-1.61894 12.57909,0 13.872241,0.14046 17.595258,1.9111 4.73617,2.25249 7.1618,6.27103 7.1618,11.86498 0,4.07904 -1.55286,7.52042 -4.69636,10.40784 -0.61846,0.56809 -1.12448,1.13163 -1.12448,1.25232 0,0.12069 0.56555,0.50851 1.25678,0.86184 2.75193,1.40667 5.14979,4.09734 6.32279,7.09491 0.70663,1.80578 0.75481,2.17375 0.75481,5.76534 0,3.08066 -0.099,4.12315 -0.5023,5.29167 -0.86929,2.51842 -1.82012,4.0345 -3.75336,5.98465 -3.09817,3.12528 -7.03353,4.59869 -12.282777,4.59869 -2.830272,0 -3.826211,-0.39272 -4.38449,-1.72887 -0.480311,-1.14955 -0.503301,-9.05513 -0.0304,-10.44197 0.385008,-1.12898 1.672238,-1.85108 3.300859,-1.85167 2.644669,-0.001 4.15443,-1.61538 3.512939,-3.75646 -0.377438,-1.25982 -1.218509,-1.71894 -3.594899,-1.96241 -1.432589,-0.14677 -1.960819,-0.33176 -2.61384,-0.91537 l -0.81843,-0.73141 v -5.8212 c 0,-5.80364 0.0021,-5.82326 0.644229,-6.50681 0.354322,-0.37709 1.079561,-0.80284 1.61163,-0.94611 1.29931,-0.34987 1.880801,-1.06037 2.042591,-2.49576 0.27441,-2.43457 -1.106519,-3.38087 -4.767379,-3.26692 l -2.441482,0.076 -0.138248,19.57916 c -0.076,10.76855 -0.165341,19.61068 -0.19844,19.64921 -0.0331,0.0385 -0.44714,0.30596 -0.920081,0.59432 -0.792281,0.48306 -1.328081,0.52305 -6.813031,0.50851 -3.274208,-0.009 -6.191239,-0.11325 -6.482289,-0.23237 z"
       id="path3750"
       inkscape:connector-curvature="0"
       sodipodi:nodetypes="csccssscccccsccccccccscccccccsccccssccccccccccccccscccccscssscsccsccscccccccsccccccccccc" />
    <path
       style="fill:#f3801f;stroke-width:0.26458338"
       d="m 33.802417,220.66802 c -0.460873,-0.13343 -1.145482,-0.60808 -1.521352,-1.05477 l -0.6834,-0.81217 v -6.71157 c 0,-6.63562 0.007,-6.71624 0.588042,-7.12345 0.323418,-0.22654 0.984178,-0.41188 1.468347,-0.41188 1.295022,0 2.422512,-0.6951 2.925392,-1.80351 0.395111,-0.87087 0.456258,-2.91797 0.574469,-19.23087 0.0728,-10.04094 0.236022,-18.46901 0.362791,-18.72905 0.53984,-1.10732 1.4179,-1.24699 7.8393,-1.24699 6.652779,0 7.214309,0.10392 7.9457,1.47054 0.316719,0.59179 0.38658,2.32497 0.387519,9.61372 l 0.0011,8.89178 -2.182809,0.0769 -2.18281,0.0768 v -1.55207 c 0,-1.28028 -0.107249,-1.65283 -0.612371,-2.12737 -0.812318,-0.76313 -1.899449,-0.73336 -2.706949,0.0741 -0.533381,0.53337 -0.64943,0.91164 -0.64943,2.11667 v 1.46723 h -2.38125 -2.38125 v 2.51355 2.51354 h 1.546489 c 1.799691,0 2.510452,0.537 2.510452,1.89673 0,1.2154 -0.861812,1.80743 -2.631051,1.80743 h -1.42589 v 2.51355 2.51354 h 2.513539 2.513541 v -1.53693 c 0,-1.78358 0.33501,-2.36059 1.50381,-2.59011 0.681289,-0.13379 0.972201,-0.0356 1.521359,0.51357 0.56568,0.56568 0.679001,0.92385 0.679001,2.14623 v 1.46724 h 2.28609 2.28609 l -0.18936,3.77031 c -0.298061,5.9344 -1.30116,9.38835 -3.7049,12.75688 -3.251559,4.55665 -7.981471,7.02718 -13.37792,6.98757 -1.091409,-0.008 -2.361459,-0.12374 -2.82234,-0.25717 z m 25.70879,-2.34105 c -0.291042,-0.11912 -0.767292,-0.48114 -1.058331,-0.80447 -0.50713,-0.56341 -0.532291,-1.01653 -0.60421,-10.87915 l -0.075,-10.29126 h -1.578601 -1.57861 v -2.11666 -2.11667 h -1.264039 c -1.64922,0 -2.44012,-0.549 -2.44012,-1.69379 0,-1.23947 0.677471,-1.74579 2.335929,-1.74579 h 1.36823 v -2.24896 -2.24896 h 1.5875 1.5875 v -9.08864 c 0,-5.96938 0.10065,-9.37737 0.293272,-9.92992 0.56003,-1.60649 0.65836,-1.61894 12.78509,-1.61894 12.579088,0 13.872239,0.14046 17.595258,1.9111 4.73617,2.25249 7.1618,6.27103 7.1618,11.86498 0,4.07904 -1.55286,7.52042 -4.69636,10.40784 -0.61846,0.56809 -1.12448,1.13163 -1.12448,1.25232 0,0.12069 0.56555,0.50851 1.25678,0.86184 2.75193,1.40667 5.14979,4.09734 6.32279,7.09491 0.70663,1.80578 0.75481,2.17375 0.75481,5.76534 0,3.08066 -0.099,4.12315 -0.5023,5.29167 -0.86929,2.51842 -1.82012,4.0345 -3.75336,5.98465 -3.09817,3.12528 -7.03353,4.59869 -12.282779,4.59869 -2.830269,0 -3.826209,-0.39272 -4.38449,-1.72887 -0.480309,-1.14955 -0.503301,-9.05513 -0.0304,-10.44197 0.385011,-1.12898 1.672241,-1.85108 3.30086,-1.85167 2.644672,-10e-4 4.154432,-1.61538 3.512942,-3.75646 -0.377442,-1.25982 -1.21851,-1.71894 -3.594902,-1.96241 -1.432589,-0.14677 -1.960819,-0.33176 -2.61384,-0.91537 l -0.818428,-0.73141 v -5.8212 c 0,-5.80364 0.0021,-5.82326 0.644229,-6.50681 0.354319,-0.37709 1.079561,-0.80284 1.61163,-0.94611 1.29931,-0.34987 1.880801,-1.06037 2.042591,-2.49576 0.27441,-2.43457 -1.106522,-3.38087 -4.767381,-3.26692 l -2.44148,0.076 -0.13825,19.57916 c -0.076,10.76855 -0.165341,19.61068 -0.19844,19.64921 -0.0331,0.0385 -0.447141,0.30596 -0.920081,0.59432 -0.792279,0.48306 -1.328079,0.52305 -6.813029,0.50851 -3.274211,-0.009 -6.191239,-0.11325 -6.482291,-0.23237 z"
       id="path3748"
       inkscape:connector-curvature="0"
       sodipodi:nodetypes="cccscscccscccccsccscccccssscccccsccsccccccccccccccccssscccccssssscsccsccscccccccsccccccccccc" />
    <path
       style="fill:#5c5c5c;stroke-width:0.26458338"
       d="m 33.802417,220.66802 c -0.460873,-0.13343 -1.145482,-0.60808 -1.521352,-1.05477 l -0.6834,-0.81217 v -6.71157 c 0,-6.63562 0.007,-6.71624 0.588042,-7.12345 0.323418,-0.22654 0.984178,-0.41188 1.468347,-0.41188 1.295022,0 2.422512,-0.6951 2.925392,-1.80351 0.395111,-0.87087 0.456258,-2.91797 0.574469,-19.23087 0.0728,-10.04094 0.236022,-18.46901 0.362791,-18.72905 0.53984,-1.10732 1.4179,-1.24699 7.8393,-1.24699 6.652779,0 7.214309,0.10392 7.9457,1.47054 0.316719,0.59179 0.38658,2.32497 0.387519,9.61372 l 0.0011,8.89178 -2.182809,0.0769 -2.18281,0.0768 v -1.55207 c 0,-1.28028 -0.107249,-1.65283 -0.612371,-2.12737 -0.812318,-0.76313 -1.899449,-0.73336 -2.706949,0.0741 -0.533381,0.53337 -0.64943,0.91164 -0.64943,2.11667 v 1.46723 h -2.38125 -2.38125 v 2.51355 2.51354 h 1.546489 c 1.799691,0 2.510452,0.537 2.510452,1.89673 0,1.2154 -0.861812,1.80743 -2.631051,1.80743 h -1.42589 v 2.51355 2.51354 h 2.513539 2.513541 v -1.53693 c 0,-1.78358 0.33501,-2.36059 1.50381,-2.59011 0.681289,-0.13379 0.972201,-0.0356 1.521359,0.51357 0.56568,0.56568 0.679001,0.92385 0.679001,2.14623 v 1.46724 h 2.28609 2.28609 l -0.18936,3.77031 c -0.298061,5.9344 -1.30116,9.38835 -3.7049,12.75688 -3.251559,4.55665 -7.981471,7.02718 -13.37792,6.98757 -1.091409,-0.008 -2.361459,-0.12374 -2.82234,-0.25717 z m 22.467649,-24.24724 -1.653651,-0.0939 v -2.10405 -2.10404 h -1.264039 c -1.649219,0 -2.44012,-0.549 -2.44012,-1.69379 0,-1.23947 0.677469,-1.74579 2.33593,-1.74579 h 1.368229 v -2.24896 -2.24896 h 2.248961 2.248961 v 1.4142 c 0,1.58863 0.500279,2.28997 1.633469,2.28997 1.026509,0 1.541531,-0.77108 1.541531,-2.30793 v -1.34021 l 2.18281,-0.11422 c 1.200549,-0.0628 2.272109,-0.0684 2.38125,-0.0124 0.109138,0.056 0.19844,1.0473 0.19844,2.20288 v 2.10105 h 1.07573 c 1.086019,0 2.068599,0.36432 2.425948,0.8995 0.106911,0.16012 0.19621,0.67132 0.19843,1.13602 0.005,1.11774 -0.798909,1.66864 -2.436069,1.66864 l -1.264039,1e-5 v 2.25926 2.25926 l -2.315112,-0.0764 -2.315099,-0.0764 -0.134551,-1.51039 c -0.074,-0.83071 -0.252598,-1.62101 -0.396878,-1.7562 -0.59877,-0.56109 -1.38022,-0.57095 -2.07283,-0.0261 -0.606701,0.47723 -0.70303,0.74976 -0.70303,1.98901 0,1.3279 -0.0448,1.43217 -0.59531,1.38502 -0.327432,-0.028 -1.339461,-0.0933 -2.248961,-0.14491 z"
       id="path3746"
       inkscape:connector-curvature="0"
       sodipodi:nodetypes="cccscscccscccccsccscccccssscccccsccsccccccccccccssscccccssscccscscccccccccccsccc" />
    <path
       style="fill:#135f92;stroke-width:0.26458338"
       d="m 33.802417,220.66802 c -0.460873,-0.13343 -1.145482,-0.60808 -1.521352,-1.05477 l -0.6834,-0.81217 v -6.71157 c 0,-6.63562 0.007,-6.71624 0.588042,-7.12345 0.323418,-0.22654 0.984178,-0.41188 1.468347,-0.41188 1.295022,0 2.422512,-0.6951 2.925392,-1.80351 0.395111,-0.87087 0.456258,-2.91797 0.574469,-19.23087 0.0728,-10.04094 0.236022,-18.46901 0.362791,-18.72905 0.53984,-1.10732 1.4179,-1.24699 7.8393,-1.24699 6.652779,0 7.214309,0.10392 7.9457,1.47054 0.316719,0.59179 0.38658,2.32497 0.387519,9.61372 l 0.0011,8.89178 -2.182809,0.0769 -2.18281,0.0768 v -1.55207 c 0,-1.28028 -0.107249,-1.65283 -0.612371,-2.12737 -0.812318,-0.76313 -1.899449,-0.73336 -2.706949,0.0741 -0.533381,0.53337 -0.64943,0.91164 -0.64943,2.11667 v 1.46723 h -2.38125 -2.38125 v 2.51355 2.51354 h 1.546489 c 1.799691,0 2.510452,0.537 2.510452,1.89673 0,1.2154 -0.861812,1.80743 -2.631051,1.80743 h -1.42589 v 2.51355 2.51354 h 2.513539 2.513541 v -1.53693 c 0,-1.78358 0.33501,-2.36059 1.50381,-2.59011 0.681289,-0.13379 0.972201,-0.0356 1.521359,0.51357 0.56568,0.56568 0.679001,0.92385 0.679001,2.14623 v 1.46724 h 2.28609 2.28609 l -0.18936,3.77031 c -0.298061,5.9344 -1.30116,9.38835 -3.7049,12.75688 -3.251559,4.55665 -7.981471,7.02718 -13.37792,6.98757 -1.091409,-0.008 -2.361459,-0.12374 -2.82234,-0.25717 z m 20.813998,-26.43259 v -2.11667 h -1.264039 c -1.649219,0 -2.44012,-0.549 -2.44012,-1.69379 0,-1.23947 0.677469,-1.74579 2.33593,-1.74579 h 1.368229 v -2.24896 -2.24896 h 2.116672 2.116669 v 1.33494 c 0,1.06457 0.13153,1.46648 0.649431,1.98438 0.35719,0.35719 0.898379,0.64943 1.20265,0.64943 0.304268,0 0.84546,-0.29224 1.202648,-0.64943 0.5179,-0.5179 0.64943,-0.91981 0.64943,-1.98438 v -1.33494 h 2.10597 2.105972 l 0.0768,2.18281 0.0768,2.18282 1.51038,0.13455 c 1.75243,0.15612 2.149692,0.45505 2.149692,1.61765 0,1.19225 -0.861571,1.81967 -2.49876,1.81967 h -1.293611 v 2.11667 2.11666 h -2.116661 -2.116672 v -1.27302 c 0,-1.51503 -0.684408,-2.43114 -1.816269,-2.43114 -1.138989,0 -1.88789,0.97762 -1.88789,2.46445 v 1.23971 h -2.116669 -2.116672 z"
       id="path3744-6"
       inkscape:connector-curvature="0"
       sodipodi:nodetypes="cccscscccscccccsccscccccssscccccsccsccccccccccssscccccssscsccccccsscccccssscccc" />
  </g>
</svg>
