<?xml version="1.0" encoding="UTF-8" standalone="no"?>
<!-- Created with Inkscape (http://www.inkscape.org/) -->

<svg
   xmlns:dc="http://purl.org/dc/elements/1.1/"
   xmlns:cc="http://creativecommons.org/ns#"
   xmlns:rdf="http://www.w3.org/1999/02/22-rdf-syntax-ns#"
   xmlns:svg="http://www.w3.org/2000/svg"
   xmlns="http://www.w3.org/2000/svg"
   xmlns:sodipodi="http://sodipodi.sourceforge.net/DTD/sodipodi-0.dtd"
   xmlns:inkscape="http://www.inkscape.org/namespaces/inkscape"
   width="157.39157mm"
   height="92.089577mm"
   viewBox="0 0 157.39157 92.089577"
   version="1.1"
   id="svg8"
   inkscape:version="0.92.3 (2405546, 2018-03-11)"
   sodipodi:docname="jblogo.svg">
  <defs
     id="defs2" />
  <sodipodi:namedview
     id="base"
     pagecolor="#ffffff"
     bordercolor="#666666"
     borderopacity="1.0"
     inkscape:pageopacity="0.0"
     inkscape:pageshadow="2"
     inkscape:zoom="0.7"
     inkscape:cx="558.6968"
     inkscape:cy="74.646851"
     inkscape:document-units="mm"
     inkscape:current-layer="layer1"
     showgrid="false"
     fit-margin-top="0"
     fit-margin-left="0"
     fit-margin-right="0"
     fit-margin-bottom="0"
     inkscape:window-width="1366"
     inkscape:window-height="707"
     inkscape:window-x="0"
     inkscape:window-y="25"
     inkscape:window-maximized="1" />
  <metadata
     id="metadata5">
    <rdf:RDF>
      <cc:Work
         rdf:about="">
        <dc:format>image/svg+xml</dc:format>
        <dc:type
           rdf:resource="http://purl.org/dc/dcmitype/StillImage" />
        <dc:title></dc:title>
      </cc:Work>
    </rdf:RDF>
  </metadata>
  <g
     inkscape:label="Camada 1"
     inkscape:groupmode="layer"
     id="layer1"
     transform="translate(-24.37009,-97.802085)">
    <g
       id="g3740"
       transform="translate(-172.78229,-82.388831)">
      <path
         style="fill:#f6a560;stroke-width:0.26458335"
         d="m 197.15238,270.69286 v -1.5875 h 1.29052 c 0.75454,0 1.41248,-0.14695 1.58416,-0.35381 0.20033,-0.24139 0.31571,-3.41495 0.36312,-9.98802 l 0.0695,-9.63421 1.65365,-0.0788 1.65365,-0.0788 v 10.20758 c 0,11.67459 -0.006,11.71091 -1.90827,12.5745 -0.75837,0.34419 -1.72649,0.51681 -2.92038,0.52069 l -1.78594,0.006 z m 12.75619,1.07632 c -1.91637,-0.89565 -1.93912,-1.03902 -1.85184,-11.66963 l 0.0759,-9.24086 0.86426,-0.86469 0.86426,-0.86468 3.10449,-0.0858 c 2.8917,-0.0799 3.16723,-0.0434 4.01987,0.53252 1.52561,1.03052 1.62756,1.79793 1.54147,11.60407 -0.0827,9.41713 -0.0846,9.42884 -1.70965,10.49362 -1.11378,0.72978 -5.42408,0.78933 -6.90872,0.0955 z m 4.91798,-2.98132 c 0.23298,-0.23298 0.3175,-2.45326 0.3175,-8.34092 v -8.02343 l -0.7276,-0.28053 c -0.72309,-0.27879 -2.59458,-0.17619 -2.93227,0.16075 -0.30041,0.29974 -0.35832,15.31422 -0.0621,16.0934 0.24543,0.64553 0.39399,0.70823 1.67811,0.70823 0.77486,0 1.55171,-0.14288 1.72634,-0.3175 z m 7.72583,-6.85241 c 0,-11.51 0.029,-11.72146 1.71408,-12.5211 1.18153,-0.56067 5.15849,-0.57084 6.32735,-0.0162 1.75551,0.83304 1.74816,0.78084 1.74816,12.40582 v 10.47636 h -1.5875 -1.5875 v -4.23333 -4.23334 h -1.7198 -1.71979 v 4.23334 4.23333 h -1.5875 -1.5875 z m 6.61459,-5.25051 c 0,-3.78575 -0.025,-3.97124 -0.58804,-4.36562 -0.32342,-0.22653 -0.83271,-0.41188 -1.13176,-0.41188 -0.29904,0 -0.80833,0.18535 -1.13175,0.41188 -0.56305,0.39438 -0.58804,0.57987 -0.58804,4.36562 v 3.95375 h 1.71979 1.7198 z m 9.64271,15.31277 c -0.44458,-0.12921 -1.09943,-0.54464 -1.45521,-0.92319 l -0.64688,-0.68826 -0.0757,-9.49873 c -0.0833,-10.45975 -0.055,-10.67355 1.52221,-11.48915 1.09567,-0.56659 5.82081,-0.55585 7.02583,0.016 1.65967,0.78757 1.71408,1.14344 1.71408,11.21133 0,10.23619 -0.005,10.26381 -1.93578,11.1405 -1.20207,0.54576 -4.62403,0.67462 -6.14859,0.23154 z m 4.64675,-3.42519 c 0.33954,-0.63444 0.2548,-15.96832 -0.0902,-16.31268 -0.39932,-0.39864 -3.08257,-0.25734 -3.35699,0.17677 -0.39044,0.61765 -0.33554,15.95719 0.0585,16.35125 0.17462,0.17462 0.94434,0.3175 1.71048,0.3175 1.12539,0 1.44777,-0.10236 1.67815,-0.53284 z m 17.9897,-7.93383 v -11.64166 h 3.37757 c 5.52,0 6.14743,0.63896 6.14743,6.26046 v 3.49059 l -0.95395,0.78633 c -0.88869,0.73253 -0.91631,0.79827 -0.40377,0.96094 0.30259,0.096 0.7914,0.48129 1.08624,0.85612 0.48199,0.61275 0.53607,1.06579 0.53607,4.49078 0,4.60537 -0.23018,5.36141 -1.82682,6.00025 -0.82156,0.32873 -1.95026,0.43786 -4.52854,0.43786 h -3.43423 z m 6.34069,7.9549 c 0.38908,-0.727 0.33878,-5.29708 -0.0672,-6.10281 -0.28166,-0.55905 -0.54734,-0.67384 -1.7159,-0.74144 l -1.38263,-0.08 v 3.718 3.71799 h 1.4459 c 1.15873,0 1.5003,-0.10164 1.71979,-0.51177 z m -0.31807,-10.86531 c 0.22671,-0.43254 0.32046,-1.42427 0.27089,-2.86561 -0.0868,-2.52494 -0.45003,-3.03634 -2.06017,-2.90086 l -0.92605,0.0779 -0.0744,3.25599 -0.0744,3.25597 1.25872,-0.081 c 1.03036,-0.0663 1.32162,-0.20099 1.60542,-0.74244 z m 7.73571,4.20717 c 0,-11.51 0.029,-11.72146 1.71408,-12.5211 1.20247,-0.57061 5.15896,-0.57061 6.36143,0 1.68513,0.79964 1.71408,1.0111 1.71408,12.5211 v 10.34491 h -1.5875 -1.5875 v -4.23333 -4.23334 h -1.71979 -1.7198 v 4.23334 4.23333 h -1.5875 -1.5875 z m 6.61459,-5.25941 c 0,-3.93299 -0.005,-3.96589 -0.66029,-4.39529 -0.78393,-0.51365 -2.37662,-0.32106 -2.62146,0.31699 -0.0868,0.22622 -0.15784,2.12798 -0.15784,4.22613 v 3.81482 h 1.7198 1.71979 z m 7.59626,15.43947 c -0.10336,-0.10336 -0.18793,-5.35588 -0.18793,-11.67227 V 248.9589 l 3.94181,0.0852 c 3.49689,0.0756 4.0087,0.14493 4.53443,0.61437 1.10079,0.98292 1.31344,1.97871 1.31187,6.14307 -0.002,4.3451 -0.24082,5.63142 -1.18525,6.37431 -0.56146,0.44164 -0.60972,0.61231 -0.3962,1.40109 0.46671,1.72412 1.84751,7.95967 1.84751,8.34319 0,0.30331 -0.3262,0.36953 -1.5136,0.30728 l -1.5136,-0.0793 -0.31048,-1.19063 c -0.3332,-1.27777 -1.68941,-7.52537 -1.68941,-7.78254 0,-0.0852 -0.35437,-0.15496 -0.7875,-0.15496 h -0.7875 l -0.0724,4.56407 -0.0724,4.56406 -1.46571,0.0777 c -0.80614,0.0427 -1.55028,-0.007 -1.65365,-0.11025 z m 5.6503,-12.27988 c 0.46697,-0.24991 0.51177,-0.58493 0.51177,-3.82715 0,-3.97843 -0.0588,-4.10104 -1.96698,-4.10104 h -0.94344 v 4.10104 4.10105 h 0.94344 c 0.51889,0 1.17373,-0.12325 1.45521,-0.2739 z m 8.11854,12.29129 c -0.10914,-0.10964 -0.19844,-5.35871 -0.19844,-11.66462 v -11.46527 l 3.37344,5.2e-4 c 5.39389,5.3e-4 6.1752,0.69639 6.36551,5.6683 0.12409,3.24194 -0.27369,4.84141 -1.26874,5.10162 -0.71718,0.18755 -0.67055,0.45902 0.1425,0.82946 1.20313,0.54819 1.5111,1.84358 1.39222,5.85602 -0.1601,5.40405 -0.41195,5.65078 -5.90388,5.78375 -2.0373,0.0493 -3.79347,-2e-5 -3.90261,-0.10966 z m 6.35793,-6.36817 c 0.0866,-3.75633 -0.0597,-4.06172 -1.94506,-4.06172 h -1.17172 v 3.71737 3.71737 l 1.52135,-0.0794 1.52136,-0.0793 z m -0.48026,-7.7485 c 0.15064,-0.28147 0.27389,-1.53163 0.27389,-2.77812 0,-2.65104 -0.40207,-3.32469 -1.98437,-3.32469 h -0.92604 v 3.30729 3.3073 h 1.18131 c 0.89715,0 1.24721,-0.12311 1.45521,-0.51178 z m 10.22733,13.99642 c -1.07583,-0.32212 -1.97249,-1.24752 -2.27944,-2.3525 -0.34455,-1.24029 -0.34455,-17.05525 0,-18.29554 0.14448,-0.52013 0.57013,-1.23451 0.94588,-1.5875 0.65025,-0.61089 0.84764,-0.64181 4.09635,-0.64181 h 3.41318 l 0.86499,0.86465 0.86498,0.86464 0.0789,9.25494 c 0.0903,10.59625 0.062,10.76934 -1.91092,11.6654 -1.16538,0.52929 -4.63257,0.65928 -6.07393,0.22772 z m 4.53666,-11.23569 c 0.0641,-7.47614 0.0303,-8.23135 -0.3813,-8.53281 -0.54786,-0.40122 -2.04768,-0.43223 -2.74911,-0.0568 -0.48867,0.26153 -0.51177,0.63541 -0.51177,8.28146 0,6.02807 0.0813,8.08885 0.32879,8.33636 0.20421,0.20421 0.88089,0.29945 1.78594,0.25135 l 1.45715,-0.0774 z m 9.37859,10.9993 c -1.3715,-0.64232 -1.90827,-1.72445 -1.90827,-3.84705 v -1.4637 h 1.5875 1.5875 v 0.81114 c 0,1.28884 0.42608,1.83469 1.43212,1.83469 1.33489,0 1.50799,-0.40429 1.42206,-3.32147 l -0.0761,-2.58192 -2.51355,-1.40988 c -1.38244,-0.77544 -2.7219,-1.66302 -2.97656,-1.97241 -0.39356,-0.47814 -0.46302,-1.13491 -0.46302,-4.37817 0,-4.4419 0.24592,-5.33048 1.66108,-6.00202 1.38095,-0.6553 5.0699,-0.6115 6.19339,0.0735 1.15833,0.70629 1.39659,1.26455 1.58556,3.7151 l 0.1634,2.11891 h -1.759 -1.75901 v -1.46176 c 0,-1.33532 -0.0602,-1.48466 -0.69641,-1.72653 -0.74402,-0.28288 -1.69305,-0.10375 -2.01152,0.37968 -0.10691,0.16228 -0.19621,1.33222 -0.19844,2.59986 -0.005,2.70651 0.008,2.72426 3.01063,4.2774 3.2344,1.67288 3.20303,1.61069 3.20303,6.34982 0,4.37125 -0.15553,4.93947 -1.61349,5.89476 -1.0862,0.71171 -4.45157,0.77477 -5.87095,0.11002 z m 11.50883,0.34523 c -0.33905,-0.33905 -0.19149,-19.97874 0.15773,-20.99266 0.18044,-0.52388 0.70114,-1.17597 1.21482,-1.52135 0.78145,-0.52542 1.23128,-0.60434 3.43958,-0.60348 3.09082,0.001 3.97218,0.41195 4.63352,2.15942 0.3794,1.00248 0.42487,2.39607 0.36117,11.06875 l -0.0729,9.92188 h -1.5875 -1.5875 l -0.0729,-4.16719 -0.0729,-4.16719 h -1.57406 -1.57406 l -0.0729,4.16719 -0.0729,4.16719 -1.46571,0.0777 c -0.80615,0.0427 -1.55029,-0.007 -1.65365,-0.11025 z m 6.36722,-15.63439 -0.0729,-4.15757 -0.86555,-0.24795 c -0.58423,-0.16736 -1.07869,-0.15083 -1.52135,0.0509 l -0.65581,0.2988 v 4.10672 4.10671 h 1.59422 1.59422 z m -127.05606,-8.77984 c -0.26039,-0.4213 0.16128,-1.83867 0.6891,-2.31635 0.53338,-0.4827 1.76452,-0.56461 3.32595,-0.2213 0.66241,0.14564 0.89398,0.0916 1.02049,-0.23806 0.1076,-0.2804 0.48245,-0.42646 1.09446,-0.42646 0.90616,0 0.92632,0.0224 0.76137,0.84718 -0.18824,0.94119 -1.02958,1.96726 -1.81836,2.21761 -0.28326,0.0899 -1.04085,0.0162 -1.68353,-0.1637 -1.01257,-0.2835 -1.23232,-0.2694 -1.64676,0.10567 -0.51726,0.46811 -1.50569,0.57894 -1.74272,0.19541 z m 21.47809,-9.91143 c -2.47735,-0.93112 -2.57718,-1.27315 -2.57718,-8.82915 0,-7.24612 0.0152,-7.3035 2.0121,-7.60296 1.72605,-0.25884 2.45645,-0.6482 2.96868,-1.58254 0.39872,-0.72729 0.45645,-2.6531 0.57547,-19.19693 0.12476,-17.34148 0.1602,-18.42969 0.62251,-19.11122 0.27995,-0.41269 0.90415,-0.83765 1.45521,-0.99071 1.58494,-0.44023 12.04314,-0.34771 13.15384,0.11637 1.63925,0.68492 1.70177,1.09808 1.70177,11.24582 v 9.00433 h -2.24896 -2.24895 v -1.41953 c 0,-1.72789 -0.70266,-2.81381 -1.82072,-2.81381 -1.28943,0 -1.73517,0.5743 -1.88243,2.42533 l -0.13331,1.67572 -2.31511,0.0764 -2.3151,0.0764 v 2.23866 2.23865 h 1.28723 c 1.76797,0 2.68152,0.72112 2.68152,2.11667 0,1.39555 -0.91355,2.11667 -2.68152,2.11667 h -1.28723 v 2.24896 2.24895 h 2.24896 2.24896 v -1.40531 c 0,-1.04599 0.13717,-1.55256 0.53649,-1.98117 0.80848,-0.86781 1.76217,-1.01156 2.59539,-0.39122 0.60931,0.45364 0.71522,0.7445 0.78335,2.15114 l 0.0788,1.62656 h 2.23634 2.23633 v 3.27264 c 0,3.80504 -0.5275,7.20674 -1.49938,9.66906 -1.9441,4.92553 -6.04419,8.90515 -10.67145,10.35792 -2.25403,0.70768 -6.3786,0.93049 -7.74157,0.41821 z m 26.03206,-2.27404 c -1.22657,-0.30717 -1.90652,-1.06914 -2.1697,-2.43145 -0.12251,-0.63413 -0.22793,-5.28444 -0.23427,-10.33403 l -0.0115,-9.18106 -1.52136,-0.0794 -1.52135,-0.0793 -0.0767,-2.01787 -0.0767,-2.01788 -1.31505,-0.12636 c -1.61618,-0.15529 -2.36803,-0.77287 -2.36803,-1.94511 0,-1.18798 1.00614,-1.96258 2.54923,-1.96258 h 1.15494 v -2.11666 -2.11667 h 1.5875 1.5875 l 0.0115,-8.53281 c 0.006,-4.69305 0.11189,-9.05238 0.23456,-9.68741 0.12958,-0.67078 0.51544,-1.44686 0.92084,-1.85208 l 0.6978,-0.69749 11.83378,0.0111 c 11.35137,0.0106 11.91837,0.0347 13.90864,0.59071 4.43477,1.23894 7.58461,3.51961 9.13151,6.61178 1.95788,3.91367 1.98479,9.17135 0.0664,12.97168 -0.45503,0.90141 -1.59997,2.45797 -2.54431,3.45902 -0.94434,1.00105 -1.71699,1.88656 -1.71699,1.9678 0,0.0812 0.54856,0.42166 1.21902,0.75651 1.9932,0.99545 4.3986,3.39966 5.50182,5.49909 2.37639,4.52228 2.3093,10.76757 -0.1659,15.44354 -1.17754,2.22452 -3.84685,4.84146 -6.18803,6.06662 -2.51313,1.31515 -4.8741,1.83339 -8.56899,1.88095 -4.8793,0.0628 -5.15937,-0.32287 -5.15937,-7.10459 0,-6.31487 0.22096,-6.7039 4.11289,-7.24123 2.37987,-0.32857 3.16316,-0.99901 3.16316,-2.70743 0,-1.53533 -0.82248,-2.26072 -2.80877,-2.4772 -3.22498,-0.35149 -4.01707,-0.88564 -4.35352,-2.93583 -0.30183,-1.83924 -0.29274,-7.61774 0.0149,-9.49666 0.29177,-1.7818 0.77381,-2.3988 2.27662,-2.91407 1.34913,-0.46258 2.08058,-1.45588 2.08058,-2.82538 0,-0.8773 -0.15719,-1.21452 -0.85805,-1.84074 -0.82526,-0.73735 -0.95909,-0.76667 -3.49973,-0.76667 h -2.64166 v 18.87823 c 0,12.77923 -0.0919,19.14177 -0.28438,19.69399 -0.57259,1.64254 -1.07449,1.76661 -7.38854,1.82642 -3.1287,0.0296 -6.08985,-0.0466 -6.58034,-0.16944 z"
         id="path3754"
         inkscape:connector-curvature="0" />
      <path
         style="fill:#a0a0a0;stroke-width:0.26458335"
         d="m 197.15238,270.69286 v -1.5875 h 1.29052 c 0.75454,0 1.41248,-0.14695 1.58416,-0.35381 0.20033,-0.24139 0.31571,-3.41495 0.36312,-9.98802 l 0.0695,-9.63421 1.65365,-0.0788 1.65365,-0.0788 v 10.20758 c 0,11.67459 -0.006,11.71091 -1.90827,12.5745 -0.75837,0.34419 -1.72649,0.51681 -2.92038,0.52069 l -1.78594,0.006 z m 12.75619,1.07632 c -1.91637,-0.89565 -1.93912,-1.03902 -1.85184,-11.66963 l 0.0759,-9.24086 0.86426,-0.86469 0.86426,-0.86468 3.10449,-0.0858 c 2.8917,-0.0799 3.16723,-0.0434 4.01987,0.53252 1.52561,1.03052 1.62756,1.79793 1.54147,11.60407 -0.0827,9.41713 -0.0846,9.42884 -1.70965,10.49362 -1.11378,0.72978 -5.42408,0.78933 -6.90872,0.0955 z m 4.91798,-2.98132 c 0.23298,-0.23298 0.3175,-2.45326 0.3175,-8.34092 v -8.02343 l -0.7276,-0.28053 c -0.72309,-0.27879 -2.59458,-0.17619 -2.93227,0.16075 -0.30041,0.29974 -0.35832,15.31422 -0.0621,16.0934 0.24543,0.64553 0.39399,0.70823 1.67811,0.70823 0.77486,0 1.55171,-0.14288 1.72634,-0.3175 z m 7.72583,-6.85241 c 0,-11.51 0.029,-11.72146 1.71408,-12.5211 1.18153,-0.56067 5.15849,-0.57084 6.32735,-0.0162 1.75551,0.83304 1.74816,0.78084 1.74816,12.40582 v 10.47636 h -1.5875 -1.5875 v -4.23333 -4.23334 h -1.7198 -1.71979 v 4.23334 4.23333 h -1.5875 -1.5875 z m 6.61459,-5.25051 c 0,-3.78575 -0.025,-3.97124 -0.58804,-4.36562 -0.32342,-0.22653 -0.83271,-0.41188 -1.13176,-0.41188 -0.29904,0 -0.80833,0.18535 -1.13175,0.41188 -0.56305,0.39438 -0.58804,0.57987 -0.58804,4.36562 v 3.95375 h 1.71979 1.7198 z m 9.64271,15.31277 c -0.44458,-0.12921 -1.09943,-0.54464 -1.45521,-0.92319 l -0.64688,-0.68826 -0.0757,-9.49873 c -0.0833,-10.45975 -0.055,-10.67355 1.52221,-11.48915 1.09567,-0.56659 5.82081,-0.55585 7.02583,0.016 1.65967,0.78757 1.71408,1.14344 1.71408,11.21133 0,10.23619 -0.005,10.26381 -1.93578,11.1405 -1.20207,0.54576 -4.62403,0.67462 -6.14859,0.23154 z m 4.64675,-3.42519 c 0.33954,-0.63444 0.2548,-15.96832 -0.0902,-16.31268 -0.39932,-0.39864 -3.08257,-0.25734 -3.35699,0.17677 -0.39044,0.61765 -0.33554,15.95719 0.0585,16.35125 0.17462,0.17462 0.94434,0.3175 1.71048,0.3175 1.12539,0 1.44777,-0.10236 1.67815,-0.53284 z m 17.9897,-7.93383 v -11.64166 h 3.37757 c 5.52,0 6.14743,0.63896 6.14743,6.26046 v 3.49059 l -0.95395,0.78633 c -0.88869,0.73253 -0.91631,0.79827 -0.40377,0.96094 0.30259,0.096 0.7914,0.48129 1.08624,0.85612 0.48199,0.61275 0.53607,1.06579 0.53607,4.49078 0,4.60537 -0.23018,5.36141 -1.82682,6.00025 -0.82156,0.32873 -1.95026,0.43786 -4.52854,0.43786 h -3.43423 z m 6.34069,7.9549 c 0.38908,-0.727 0.33878,-5.29708 -0.0672,-6.10281 -0.28166,-0.55905 -0.54734,-0.67384 -1.7159,-0.74144 l -1.38263,-0.08 v 3.718 3.71799 h 1.4459 c 1.15873,0 1.5003,-0.10164 1.71979,-0.51177 z m -0.31807,-10.86531 c 0.22671,-0.43254 0.32046,-1.42427 0.27089,-2.86561 -0.0868,-2.52494 -0.45003,-3.03634 -2.06017,-2.90086 l -0.92605,0.0779 -0.0744,3.25599 -0.0744,3.25597 1.25872,-0.081 c 1.03036,-0.0663 1.32162,-0.20099 1.60542,-0.74244 z m 7.73571,4.20717 c 0,-11.51 0.029,-11.72146 1.71408,-12.5211 1.20247,-0.57061 5.15896,-0.57061 6.36143,0 1.68513,0.79964 1.71408,1.0111 1.71408,12.5211 v 10.34491 h -1.5875 -1.5875 v -4.23333 -4.23334 h -1.71979 -1.7198 v 4.23334 4.23333 h -1.5875 -1.5875 z m 6.61459,-5.25941 c 0,-3.93299 -0.005,-3.96589 -0.66029,-4.39529 -0.78393,-0.51365 -2.37662,-0.32106 -2.62146,0.31699 -0.0868,0.22622 -0.15784,2.12798 -0.15784,4.22613 v 3.81482 h 1.7198 1.71979 z m 7.59626,15.43947 c -0.10336,-0.10336 -0.18793,-5.35588 -0.18793,-11.67227 V 248.9589 l 3.94181,0.0852 c 3.49689,0.0756 4.0087,0.14493 4.53443,0.61437 1.10079,0.98292 1.31344,1.97871 1.31187,6.14307 -0.002,4.3451 -0.24082,5.63142 -1.18525,6.37431 -0.56146,0.44164 -0.60972,0.61231 -0.3962,1.40109 0.46671,1.72412 1.84751,7.95967 1.84751,8.34319 0,0.30331 -0.3262,0.36953 -1.5136,0.30728 l -1.5136,-0.0793 -0.31048,-1.19063 c -0.3332,-1.27777 -1.68941,-7.52537 -1.68941,-7.78254 0,-0.0852 -0.35437,-0.15496 -0.7875,-0.15496 h -0.7875 l -0.0724,4.56407 -0.0724,4.56406 -1.46571,0.0777 c -0.80614,0.0427 -1.55028,-0.007 -1.65365,-0.11025 z m 5.6503,-12.27988 c 0.46697,-0.24991 0.51177,-0.58493 0.51177,-3.82715 0,-3.97843 -0.0588,-4.10104 -1.96698,-4.10104 h -0.94344 v 4.10104 4.10105 h 0.94344 c 0.51889,0 1.17373,-0.12325 1.45521,-0.2739 z m 8.11854,12.29129 c -0.10914,-0.10964 -0.19844,-5.35871 -0.19844,-11.66462 v -11.46527 l 3.37344,5.2e-4 c 5.39389,5.3e-4 6.1752,0.69639 6.36551,5.6683 0.12409,3.24194 -0.27369,4.84141 -1.26874,5.10162 -0.71718,0.18755 -0.67055,0.45902 0.1425,0.82946 1.20313,0.54819 1.5111,1.84358 1.39222,5.85602 -0.1601,5.40405 -0.41195,5.65078 -5.90388,5.78375 -2.0373,0.0493 -3.79347,-2e-5 -3.90261,-0.10966 z m 6.35793,-6.36817 c 0.0866,-3.75633 -0.0597,-4.06172 -1.94506,-4.06172 h -1.17172 v 3.71737 3.71737 l 1.52135,-0.0794 1.52136,-0.0793 z m -0.48026,-7.7485 c 0.15064,-0.28147 0.27389,-1.53163 0.27389,-2.77812 0,-2.65104 -0.40207,-3.32469 -1.98437,-3.32469 h -0.92604 v 3.30729 3.3073 h 1.18131 c 0.89715,0 1.24721,-0.12311 1.45521,-0.51178 z m 10.22733,13.99642 c -1.07583,-0.32212 -1.97249,-1.24752 -2.27944,-2.3525 -0.34455,-1.24029 -0.34455,-17.05525 0,-18.29554 0.14448,-0.52013 0.57013,-1.23451 0.94588,-1.5875 0.65025,-0.61089 0.84764,-0.64181 4.09635,-0.64181 h 3.41318 l 0.86499,0.86465 0.86498,0.86464 0.0789,9.25494 c 0.0903,10.59625 0.062,10.76934 -1.91092,11.6654 -1.16538,0.52929 -4.63257,0.65928 -6.07393,0.22772 z m 4.53666,-11.23569 c 0.0641,-7.47614 0.0303,-8.23135 -0.3813,-8.53281 -0.54786,-0.40122 -2.04768,-0.43223 -2.74911,-0.0568 -0.48867,0.26153 -0.51177,0.63541 -0.51177,8.28146 0,6.02807 0.0813,8.08885 0.32879,8.33636 0.20421,0.20421 0.88089,0.29945 1.78594,0.25135 l 1.45715,-0.0774 z m 9.37859,10.9993 c -1.3715,-0.64232 -1.90827,-1.72445 -1.90827,-3.84705 v -1.4637 h 1.5875 1.5875 v 0.81114 c 0,1.28884 0.42608,1.83469 1.43212,1.83469 1.33489,0 1.50799,-0.40429 1.42206,-3.32147 l -0.0761,-2.58192 -2.51355,-1.40988 c -1.38244,-0.77544 -2.7219,-1.66302 -2.97656,-1.97241 -0.39356,-0.47814 -0.46302,-1.13491 -0.46302,-4.37817 0,-4.4419 0.24592,-5.33048 1.66108,-6.00202 1.38095,-0.6553 5.0699,-0.6115 6.19339,0.0735 1.15833,0.70629 1.39659,1.26455 1.58556,3.7151 l 0.1634,2.11891 h -1.759 -1.75901 v -1.46176 c 0,-1.33532 -0.0602,-1.48466 -0.69641,-1.72653 -0.74402,-0.28288 -1.69305,-0.10375 -2.01152,0.37968 -0.10691,0.16228 -0.19621,1.33222 -0.19844,2.59986 -0.005,2.70651 0.008,2.72426 3.01063,4.2774 3.2344,1.67288 3.20303,1.61069 3.20303,6.34982 0,4.37125 -0.15553,4.93947 -1.61349,5.89476 -1.0862,0.71171 -4.45157,0.77477 -5.87095,0.11002 z m 11.50883,0.34523 c -0.33905,-0.33905 -0.19149,-19.97874 0.15773,-20.99266 0.18044,-0.52388 0.70114,-1.17597 1.21482,-1.52135 0.78145,-0.52542 1.23128,-0.60434 3.43958,-0.60348 3.09082,0.001 3.97218,0.41195 4.63352,2.15942 0.3794,1.00248 0.42487,2.39607 0.36117,11.06875 l -0.0729,9.92188 h -1.5875 -1.5875 l -0.0729,-4.16719 -0.0729,-4.16719 h -1.57406 -1.57406 l -0.0729,4.16719 -0.0729,4.16719 -1.46571,0.0777 c -0.80615,0.0427 -1.55029,-0.007 -1.65365,-0.11025 z m 6.36722,-15.63439 -0.0729,-4.15757 -0.86555,-0.24795 c -0.58423,-0.16736 -1.07869,-0.15083 -1.52135,0.0509 l -0.65581,0.2988 v 4.10672 4.10671 h 1.59422 1.59422 z m -127.05606,-8.77984 c -0.26039,-0.4213 0.16128,-1.83867 0.6891,-2.31635 0.53338,-0.4827 1.76452,-0.56461 3.32595,-0.2213 0.66241,0.14564 0.89398,0.0916 1.02049,-0.23806 0.1076,-0.2804 0.48245,-0.42646 1.09446,-0.42646 0.90616,0 0.92632,0.0224 0.76137,0.84718 -0.18824,0.94119 -1.02958,1.96726 -1.81836,2.21761 -0.28326,0.0899 -1.04085,0.0162 -1.68353,-0.1637 -1.01257,-0.2835 -1.23232,-0.2694 -1.64676,0.10567 -0.51726,0.46811 -1.50569,0.57894 -1.74272,0.19541 z m 21.47809,-9.91143 c -2.47735,-0.93112 -2.57718,-1.27315 -2.57718,-8.82915 0,-7.24612 0.0152,-7.3035 2.0121,-7.60296 1.72605,-0.25884 2.45645,-0.6482 2.96868,-1.58254 0.39872,-0.72729 0.45645,-2.6531 0.57547,-19.19693 0.12476,-17.34148 0.1602,-18.42969 0.62251,-19.11122 0.27995,-0.41269 0.90415,-0.83765 1.45521,-0.99071 1.58494,-0.44023 12.04314,-0.34771 13.15384,0.11637 1.63925,0.68492 1.70177,1.09808 1.70177,11.24582 v 9.00433 h -2.24896 -2.24895 v -1.41953 c 0,-1.72789 -0.70266,-2.81381 -1.82072,-2.81381 -1.28943,0 -1.73517,0.5743 -1.88243,2.42533 l -0.13331,1.67572 -2.31511,0.0764 -2.3151,0.0764 v 2.23866 2.23865 h 1.28723 c 1.76797,0 2.68152,0.72112 2.68152,2.11667 0,1.39555 -0.91355,2.11667 -2.68152,2.11667 h -1.28723 v 2.24896 2.24895 h 2.24896 2.24896 v -1.40531 c 0,-1.04599 0.13717,-1.55256 0.53649,-1.98117 0.80848,-0.86781 1.76217,-1.01156 2.59539,-0.39122 0.60931,0.45364 0.71522,0.7445 0.78335,2.15114 l 0.0788,1.62656 h 2.23634 2.23633 v 3.27264 c 0,3.80504 -0.5275,7.20674 -1.49938,9.66906 -1.9441,4.92553 -6.04419,8.90515 -10.67145,10.35792 -2.25403,0.70768 -6.3786,0.93049 -7.74157,0.41821 z m 25.60094,-2.5367 c -0.29104,-0.11912 -0.76729,-0.48113 -1.05833,-0.80447 -0.50681,-0.56305 -0.53234,-1.01661 -0.60427,-10.73446 l -0.0751,-10.14658 -1.64469,-0.0785 -1.64468,-0.0785 -0.0767,-2.01787 -0.0767,-2.01788 -1.31505,-0.12636 c -1.61618,-0.15529 -2.36803,-0.77287 -2.36803,-1.94511 0,-1.18798 1.00614,-1.96258 2.54923,-1.96258 h 1.15494 v -2.10404 -2.10404 l 1.65364,-0.0788 1.65365,-0.0788 0.13229,-9.39271 c 0.0728,-5.16599 0.23602,-9.60547 0.36279,-9.86551 0.58388,-1.19766 1.08686,-1.24699 12.71557,-1.24699 12.57909,0 13.87224,0.14046 17.59526,1.9111 4.73617,2.25249 7.1618,6.27103 7.1618,11.86498 0,4.07904 -1.55286,7.52042 -4.69636,10.40784 -0.61846,0.56809 -1.12448,1.13163 -1.12448,1.25232 0,0.12069 0.56555,0.50851 1.25678,0.86184 2.75193,1.40667 5.14979,4.09734 6.32279,7.09491 0.70663,1.80578 0.75481,2.17375 0.75481,5.76534 0,3.08066 -0.099,4.12315 -0.5023,5.29167 -0.86929,2.51842 -1.82012,4.0345 -3.75336,5.98465 -3.09817,3.12528 -7.03353,4.59869 -12.28278,4.59869 -2.83027,0 -3.82621,-0.39272 -4.38449,-1.72887 -0.48031,-1.14955 -0.5033,-9.05513 -0.0304,-10.44197 0.38501,-1.12898 1.67224,-1.85108 3.30086,-1.85167 2.64467,-0.001 4.15443,-1.61538 3.51294,-3.75646 -0.37744,-1.25982 -1.21851,-1.71894 -3.5949,-1.96241 -1.43259,-0.14677 -1.96082,-0.33176 -2.61384,-0.91537 l -0.81843,-0.73141 v -5.8212 c 0,-5.80364 0.002,-5.82326 0.64423,-6.50681 0.35432,-0.37709 1.07956,-0.80284 1.61163,-0.94611 1.29931,-0.34987 1.8808,-1.06037 2.04259,-2.49576 0.27441,-2.43457 -1.10652,-3.38087 -4.76738,-3.26692 l -2.44148,0.076 -0.13825,19.57916 c -0.076,10.76855 -0.16534,19.61068 -0.19844,19.64921 -0.0331,0.0385 -0.44714,0.30596 -0.92008,0.59432 -0.79228,0.48306 -1.32808,0.52305 -6.81303,0.50851 -3.27421,-0.009 -6.19124,-0.11325 -6.48229,-0.23237 z"
         id="path3752"
         inkscape:connector-curvature="0" />
      <path
         style="fill:#5d91b4;stroke-width:0.26458335"
         d="m 197.15238,270.58689 v -1.48153 h 1.4459 c 1.15873,0 1.5003,-0.10164 1.71979,-0.51177 0.1743,-0.32568 0.2739,-3.98643 0.2739,-10.06737 v -9.5556 l 1.52135,0.0794 1.52135,0.0794 0.079,9.12812 c 0.0931,10.76155 0.0246,11.63393 -1.00463,12.78607 -0.72302,0.80939 -0.83785,0.84334 -3.15348,0.93245 l -2.40314,0.0925 z m 12.72551,1.09426 c -0.34978,-0.17976 -0.88556,-0.66278 -1.19063,-1.07339 -0.53314,-0.71759 -0.55762,-1.08791 -0.63077,-9.5399 -0.0832,-9.61707 0.008,-10.38648 1.35227,-11.38411 0.6554,-0.48643 1.11541,-0.55443 3.75091,-0.55443 2.63601,0 3.0954,0.0679 3.75092,0.55467 1.38546,1.02874 1.40037,1.14447 1.40456,10.9017 0.004,10.10926 -0.0328,10.347 -1.72497,11.05406 -1.13894,0.47587 -5.8108,0.50469 -6.71229,0.0414 z m 5.27271,-3.25447 c 0.14512,-0.38171 0.25803,-3.88715 0.25803,-8.01092 0,-8.60845 0.026,-8.50832 -2.21104,-8.50832 -0.76301,0 -1.53017,0.14288 -1.70479,0.3175 -0.45368,0.45369 -0.45368,16.10924 0,16.56292 0.17462,0.17462 1.01101,0.3175 1.85863,0.3175 1.41085,0 1.56295,-0.0574 1.79917,-0.67868 z m 7.41672,-6.39892 c 0.0161,-10.78624 0.0823,-11.37211 1.39353,-12.3445 0.64518,-0.47843 1.1204,-0.55394 3.48632,-0.55394 2.36592,0 2.84115,0.0755 3.48633,0.55394 1.31127,0.97239 1.3774,1.55826 1.39353,12.3445 l 0.0149,9.98802 h -1.5875 -1.5875 v -4.23334 -4.23333 h -1.7198 -1.71979 v 4.23333 4.23334 h -1.5875 -1.5875 l 0.0149,-9.98802 z m 6.59965,-5.3049 c 0,-2.89866 -0.0974,-4.27777 -0.3175,-4.49792 -0.17463,-0.17462 -0.80566,-0.3175 -1.4023,-0.3175 -0.59663,0 -1.22766,0.14288 -1.40229,0.3175 -0.22015,0.22015 -0.3175,1.59926 -0.3175,4.49792 v 4.18042 h 1.71979 1.7198 z m 9.10721,14.9289 c -1.62329,-0.72959 -1.69899,-1.22828 -1.69789,-11.18535 0.001,-8.51605 0.0272,-8.99885 0.53496,-9.83166 0.74792,-1.22674 1.92314,-1.6378 4.68107,-1.63731 2.77559,5.2e-4 3.94718,0.4682 4.6383,1.85167 0.41215,0.82504 0.46265,1.87201 0.46302,9.59964 5.3e-4,9.23652 -0.0665,9.79265 -1.31296,10.90557 -0.50576,0.45158 -1.02513,0.53902 -3.54225,0.59638 -2.06984,0.0472 -3.19257,-0.042 -3.76425,-0.29894 z m 5.28427,-2.96492 c 0.0883,-0.23018 0.1606,-3.95683 0.1606,-8.28145 0,-5.76285 -0.0848,-7.94775 -0.3175,-8.18045 -0.41196,-0.41196 -2.92179,-0.41196 -3.33375,0 -0.23313,0.23313 -0.3175,2.47141 -0.3175,8.42257 0,4.45779 0.0794,8.18445 0.17639,8.28146 0.097,0.097 0.91771,0.17639 1.82377,0.17639 1.25813,0 1.68534,-0.0989 1.80799,-0.41852 z m 17.88768,-8.2064 v -11.53533 l 3.55291,0.0921 c 3.90803,0.10131 4.63801,0.36471 5.4164,1.95437 0.43637,0.8912 0.70461,5.08595 0.43865,6.85956 -0.15658,1.04413 -0.33067,1.32594 -1.09916,1.77937 l -0.91312,0.53875 0.86622,0.46135 c 1.34095,0.71419 1.51944,1.32823 1.52379,5.2421 0.006,5.8095 -0.32307,6.14307 -6.06838,6.14307 h -3.71731 z m 6.55685,5.3821 c 0.094,-3.92247 -0.0189,-4.16551 -1.93595,-4.16551 h -1.4459 v 3.71679 3.71679 l 1.65365,-0.0788 1.65364,-0.0788 z m -0.73601,-7.6051 c 0.45223,-0.45223 0.52916,-0.88194 0.52916,-2.95573 0,-2.92842 -0.27797,-3.39427 -2.02538,-3.39427 h -1.14962 v 3.43959 3.43958 h 1.05834 c 0.70555,0 1.23472,-0.17639 1.5875,-0.52917 z m 7.95243,3.77032 c 0.0161,-10.78624 0.0823,-11.37211 1.39353,-12.3445 0.64518,-0.47843 1.12041,-0.55394 3.48633,-0.55394 2.36592,0 2.84114,0.0755 3.48632,0.55394 1.31127,0.97239 1.37741,1.55826 1.39354,12.3445 l 0.0149,9.98802 h -1.5875 -1.5875 v -4.23334 -4.23333 h -1.71979 -1.7198 v 4.23333 4.23334 h -1.5875 -1.5875 l 0.0149,-9.98802 z m 6.59965,-5.3049 c 0,-2.89866 -0.0974,-4.27777 -0.3175,-4.49792 -0.17463,-0.17462 -0.80566,-0.3175 -1.40229,-0.3175 -0.59664,0 -1.22767,0.14288 -1.4023,0.3175 -0.22015,0.22015 -0.3175,1.59926 -0.3175,4.49792 v 4.18042 h 1.7198 1.71979 z m 7.47167,3.84969 0.0689,-11.44323 3.3632,-0.074 c 5.62896,-0.12381 6.09301,0.33039 6.24786,6.11525 0.11005,4.11125 -0.17457,5.76754 -1.17099,6.81436 l -0.65184,0.6848 1.02165,4.60687 1.02165,4.60686 -1.31552,0.0813 c -0.72354,0.0447 -1.40443,-0.0148 -1.5131,-0.13229 -0.10866,-0.11747 -0.57522,-1.99952 -1.03679,-4.18233 -1.11865,-5.29027 -0.95583,-4.89479 -2.0152,-4.89479 h -0.90821 v 4.63021 4.63021 h -1.59031 -1.59031 z m 6.13937,-1.05106 c 0.31583,-0.45092 0.41187,-1.31025 0.41187,-3.68527 0,-3.66545 -0.14314,-3.92878 -2.13556,-3.92878 h -1.30402 v 4.10104 4.10105 h 1.30792 c 1.05162,0 1.38862,-0.11523 1.71979,-0.58804 z m 7.82021,0.9774 v -11.55501 l 3.38555,0.0927 c 3.74814,0.10265 4.4078,0.33574 5.35734,1.89303 0.4384,0.719 0.51569,1.34151 0.51653,4.16009 10e-4,3.62404 -0.21091,4.28076 -1.54706,4.79247 l -0.7009,0.26843 0.83992,0.35516 c 1.56983,0.6638 1.72133,1.20393 1.62635,5.79855 -0.0846,4.09248 -0.0888,4.11711 -0.8179,4.84627 -0.72637,0.72638 -0.76808,0.73364 -4.69635,0.81809 l -3.96348,0.0852 z m 6.29223,5.20409 c 0.0498,-2.185 -0.0268,-3.39218 -0.23084,-3.63802 -0.19148,-0.23072 -0.83597,-0.36793 -1.72816,-0.36793 h -1.42282 v 3.71679 3.71679 l 1.65365,-0.0788 1.65365,-0.0788 z m -0.79485,-7.32825 c 0.54258,-0.38004 0.58803,-0.62137 0.58803,-3.12208 0,-1.75516 -0.11188,-2.82209 -0.3175,-3.02771 -0.17462,-0.17462 -0.889,-0.3175 -1.5875,-0.3175 h -1.27 v 3.43959 3.43958 h 0.99947 c 0.5497,0 1.26408,-0.18535 1.5875,-0.41188 z m 9.78563,13.22687 c -1.48394,-0.80517 -1.52468,-1.10199 -1.52468,-11.10738 0,-10.3057 0.004,-10.33007 1.90992,-11.09259 1.21446,-0.48593 4.94346,-0.52093 6.2791,-0.0589 0.5731,0.19823 1.11483,0.66053 1.45521,1.24184 0.51153,0.87361 0.54672,1.41313 0.62149,9.53027 0.089,9.65985 0.007,10.27713 -1.50745,11.29599 -0.79927,0.53786 -1.21027,0.60381 -3.70417,0.59439 -1.96253,-0.007 -3.0227,-0.12864 -3.52942,-0.40358 z m 5.30157,-2.81374 c 0.41383,-0.41383 0.45429,-15.60128 0.0436,-16.36864 -0.21755,-0.40649 -0.55775,-0.51094 -1.65365,-0.50773 -2.30152,0.007 -2.16351,-0.50316 -2.25092,8.31675 -0.0518,5.22158 0.0171,7.98811 0.20775,8.34428 0.23519,0.43947 0.55245,0.53284 1.81044,0.53284 0.8389,0 1.66815,-0.14288 1.84277,-0.3175 z m 9.33884,2.89329 c -1.08788,-0.55909 -1.64565,-1.58869 -1.80346,-3.32903 l -0.14763,-1.62801 h 1.62425 c 1.61822,0 1.62425,0.003 1.62425,0.77211 0,1.36823 0.22309,1.60914 1.49006,1.60914 1.01125,0 1.20367,-0.0915 1.42691,-0.67868 0.41622,-1.09477 0.32001,-4.40676 -0.14741,-5.0741 -0.223,-0.31837 -1.41177,-1.1274 -2.64173,-1.79785 -3.27353,-1.7844 -3.30291,-1.83936 -3.30242,-6.17724 5.3e-4,-4.15549 0.31085,-5.14731 1.85167,-5.91703 1.13309,-0.56604 4.13621,-0.62373 5.36631,-0.10308 1.55666,0.65887 1.89953,1.3039 2.00303,3.76828 l 0.0933,2.22137 h -1.4487 -1.44869 l -0.12628,-1.31414 c -0.15513,-1.61448 -0.54947,-2.12545 -1.64032,-2.12545 -1.31255,0 -1.47573,0.35651 -1.47573,3.22416 v 2.58917 l 0.99219,0.62986 c 0.5457,0.34642 1.79433,1.06746 2.77473,1.6023 0.9804,0.53485 1.90313,1.19777 2.05052,1.47317 0.14739,0.2754 0.26798,2.17925 0.26798,4.23078 0,4.40587 -0.27648,5.37602 -1.70177,5.97154 -1.13816,0.47556 -4.79232,0.50947 -5.68106,0.0527 z m 11.61616,-9.87799 c 0,-11.70009 -0.006,-11.66323 1.98995,-12.42545 1.64568,-0.62849 5.10112,-0.45514 6.12813,0.30743 1.39646,1.0369 1.39883,1.05729 1.40302,12.07803 l 0.004,10.25261 h -1.44849 -1.44849 l -0.0729,-4.16719 -0.0729,-4.16719 h -1.71979 -1.71979 l -0.0729,4.16719 -0.0729,4.16719 h -1.44849 -1.44849 z m 6.54835,-4.73634 c 0.0798,-4.47357 -0.0912,-4.98914 -1.69337,-5.10686 -1.82184,-0.13384 -1.94456,0.16183 -1.94456,4.68478 0,2.14817 0.0844,3.99017 0.18758,4.09334 0.10316,0.10316 0.90684,0.15277 1.78593,0.11024 l 1.59836,-0.0773 z M 224.13988,246.92648 c 0,-0.79646 0.80365,-1.72045 1.74333,-2.00439 0.30398,-0.0919 1.0027,0.021 1.55271,0.25083 0.95109,0.39739 1.02845,0.39113 1.58102,-0.12799 0.61761,-0.58021 1.59608,-0.72416 1.8733,-0.2756 0.3073,0.49722 -0.76536,2.20681 -1.59098,2.53567 -0.64048,0.25511 -1.02056,0.23945 -1.96829,-0.0811 -1.06182,-0.35914 -1.20426,-0.3566 -1.48437,0.0265 -0.17042,0.23306 -0.62414,0.42374 -1.00828,0.42374 -0.59008,0 -0.69844,-0.11599 -0.69844,-0.74763 z m 21.64445,-9.13294 c -2.70092,-0.75869 -2.85903,-1.24434 -2.85903,-8.78145 0,-6.96713 0.14096,-7.51785 1.92673,-7.52768 1.12913,-0.006 2.47744,-0.67339 3.01363,-1.49122 0.45334,-0.69147 0.49187,-1.88948 0.61589,-19.15022 0.12183,-16.95673 0.1689,-18.46846 0.59531,-19.11893 0.87199,-1.33018 1.19302,-1.38639 7.9181,-1.38639 5.94362,0 6.30271,0.0284 7.01146,0.55395 1.2902,0.95676 1.37737,1.6462 1.39353,11.02157 l 0.0149,8.6651 h -2.24896 -2.24895 v -1.42589 c 0,-1.60263 -0.49097,-2.41762 -1.61642,-2.6832 -1.17313,-0.27683 -2.08272,0.75642 -2.26942,2.57796 l -0.15493,1.51158 -2.2791,0.0759 -2.27909,0.0759 v 2.38125 2.38125 l 1.67572,0.13331 c 1.83916,0.14632 2.42532,0.59368 2.42532,1.85106 0,1.25738 -0.58616,1.70475 -2.42532,1.85106 l -1.67572,0.13332 v 2.38125 2.38125 l 2.28259,0.076 2.28259,0.076 0.11483,-1.58741 c 0.13678,-1.89097 0.69618,-2.66558 1.92501,-2.66558 1.40258,0 1.84256,0.53546 1.99291,2.42533 l 0.13332,1.67572 2.18281,0.0768 2.18281,0.0769 v 2.74828 c 0,7.2821 -1.77761,12.24068 -5.82473,16.24786 -1.9923,1.97264 -4.54206,3.4802 -6.94443,4.10594 -2.2515,0.58644 -5.41368,0.74012 -6.86139,0.33345 z m 25.31909,-2.54039 c -0.29104,-0.11912 -0.76729,-0.48113 -1.05833,-0.80447 -0.50683,-0.56308 -0.53234,-1.01663 -0.60431,-10.74685 l -0.0751,-10.15897 h -1.5678 -1.56781 l -0.0768,-2.18281 -0.0768,-2.18282 -1.54648,-0.13748 c -1.1105,-0.0987 -1.65128,-0.28081 -1.91823,-0.64588 -0.48597,-0.6646 -0.47127,-1.47035 0.0401,-2.20047 0.3392,-0.48429 0.66411,-0.58804 1.84138,-0.58804 h 1.42951 l 0.0768,-2.18281 0.0769,-2.18282 1.65365,-0.0788 1.65364,-0.0788 v -9.07602 c 0,-5.96013 0.10068,-9.36483 0.29327,-9.91729 0.56003,-1.60649 0.65836,-1.61894 12.78509,-1.61894 12.57909,0 13.87224,0.14046 17.59526,1.9111 4.73617,2.25249 7.1618,6.27103 7.1618,11.86498 0,4.07904 -1.55286,7.52042 -4.69636,10.40784 -0.61846,0.56809 -1.12448,1.13163 -1.12448,1.25232 0,0.12069 0.56555,0.50851 1.25678,0.86184 2.75193,1.40667 5.14979,4.09734 6.32279,7.09491 0.70663,1.80578 0.75481,2.17375 0.75481,5.76534 0,3.08066 -0.099,4.12315 -0.5023,5.29167 -0.86929,2.51842 -1.82012,4.0345 -3.75336,5.98465 -3.09817,3.12528 -7.03353,4.59869 -12.28278,4.59869 -2.83027,0 -3.82621,-0.39272 -4.38449,-1.72887 -0.48031,-1.14955 -0.5033,-9.05513 -0.0304,-10.44197 0.38501,-1.12898 1.67224,-1.85108 3.30086,-1.85167 2.64467,-10e-4 4.15443,-1.61538 3.51294,-3.75646 -0.37744,-1.25982 -1.21851,-1.71894 -3.5949,-1.96241 -1.43259,-0.14677 -1.96082,-0.33176 -2.61384,-0.91537 l -0.81843,-0.73141 v -5.8212 c 0,-5.80364 0.002,-5.82326 0.64423,-6.50681 0.35432,-0.37709 1.07956,-0.80284 1.61163,-0.94611 1.29931,-0.34987 1.8808,-1.06037 2.04259,-2.49576 0.27441,-2.43457 -1.10652,-3.38087 -4.76738,-3.26692 l -2.44148,0.076 -0.13825,19.57916 c -0.076,10.76855 -0.16534,19.61068 -0.19844,19.64921 -0.0331,0.0385 -0.44714,0.30596 -0.92008,0.59432 -0.79228,0.48306 -1.32808,0.52305 -6.81303,0.50851 -3.27421,-0.009 -6.19124,-0.11325 -6.48229,-0.23237 z"
         id="path3750"
         inkscape:connector-curvature="0" />
      <path
         style="fill:#f3801f;stroke-width:0.26458335"
         d="m 197.15238,270.58689 v -1.48153 h 1.4459 c 1.15873,0 1.5003,-0.10164 1.71979,-0.51177 0.1743,-0.32568 0.2739,-3.98643 0.2739,-10.06737 v -9.5556 l 1.52135,0.0794 1.52135,0.0794 0.079,9.12812 c 0.0931,10.76155 0.0246,11.63393 -1.00463,12.78607 -0.72302,0.80939 -0.83785,0.84334 -3.15348,0.93245 l -2.40314,0.0925 z m 12.72551,1.09426 c -0.34978,-0.17976 -0.88556,-0.66278 -1.19063,-1.07339 -0.53314,-0.71759 -0.55762,-1.08791 -0.63077,-9.5399 -0.0832,-9.61707 0.008,-10.38648 1.35227,-11.38411 0.6554,-0.48643 1.11541,-0.55443 3.75091,-0.55443 2.63601,0 3.0954,0.0679 3.75092,0.55467 1.38546,1.02874 1.40037,1.14447 1.40456,10.9017 0.004,10.10926 -0.0328,10.347 -1.72497,11.05406 -1.13894,0.47587 -5.8108,0.50469 -6.71229,0.0414 z m 5.27271,-3.25447 c 0.14512,-0.38171 0.25803,-3.88715 0.25803,-8.01092 0,-8.60845 0.026,-8.50832 -2.21104,-8.50832 -0.76301,0 -1.53017,0.14288 -1.70479,0.3175 -0.45368,0.45369 -0.45368,16.10924 0,16.56292 0.17462,0.17462 1.01101,0.3175 1.85863,0.3175 1.41085,0 1.56295,-0.0574 1.79917,-0.67868 z m 7.41672,-6.39892 c 0.0161,-10.78624 0.0823,-11.37211 1.39353,-12.3445 0.64518,-0.47843 1.1204,-0.55394 3.48632,-0.55394 2.36592,0 2.84115,0.0755 3.48633,0.55394 1.31127,0.97239 1.3774,1.55826 1.39353,12.3445 l 0.0149,9.98802 h -1.5875 -1.5875 v -4.23334 -4.23333 h -1.7198 -1.71979 v 4.23333 4.23334 h -1.5875 -1.5875 l 0.0149,-9.98802 z m 6.59965,-5.3049 c 0,-2.89866 -0.0974,-4.27777 -0.3175,-4.49792 -0.17463,-0.17462 -0.80566,-0.3175 -1.4023,-0.3175 -0.59663,0 -1.22766,0.14288 -1.40229,0.3175 -0.22015,0.22015 -0.3175,1.59926 -0.3175,4.49792 v 4.18042 h 1.71979 1.7198 z m 9.10721,14.9289 c -1.62329,-0.72959 -1.69899,-1.22828 -1.69789,-11.18535 0.001,-8.51605 0.0272,-8.99885 0.53496,-9.83166 0.74792,-1.22674 1.92314,-1.6378 4.68107,-1.63731 2.77559,5.2e-4 3.94718,0.4682 4.6383,1.85167 0.41215,0.82504 0.46265,1.87201 0.46302,9.59964 5.3e-4,9.23652 -0.0665,9.79265 -1.31296,10.90557 -0.50576,0.45158 -1.02513,0.53902 -3.54225,0.59638 -2.06984,0.0472 -3.19257,-0.042 -3.76425,-0.29894 z m 5.28427,-2.96492 c 0.0883,-0.23018 0.1606,-3.95683 0.1606,-8.28145 0,-5.76285 -0.0848,-7.94775 -0.3175,-8.18045 -0.41196,-0.41196 -2.92179,-0.41196 -3.33375,0 -0.23313,0.23313 -0.3175,2.47141 -0.3175,8.42257 0,4.45779 0.0794,8.18445 0.17639,8.28146 0.097,0.097 0.91771,0.17639 1.82377,0.17639 1.25813,0 1.68534,-0.0989 1.80799,-0.41852 z m 17.88768,-8.2064 v -11.53533 l 3.55291,0.0921 c 3.90803,0.10131 4.63801,0.36471 5.4164,1.95437 0.43637,0.8912 0.70461,5.08595 0.43865,6.85956 -0.15658,1.04413 -0.33067,1.32594 -1.09916,1.77937 l -0.91312,0.53875 0.86622,0.46135 c 1.34095,0.71419 1.51944,1.32823 1.52379,5.2421 0.006,5.8095 -0.32307,6.14307 -6.06838,6.14307 h -3.71731 z m 6.55685,5.3821 c 0.094,-3.92247 -0.0189,-4.16551 -1.93595,-4.16551 h -1.4459 v 3.71679 3.71679 l 1.65365,-0.0788 1.65364,-0.0788 z m -0.73601,-7.6051 c 0.45223,-0.45223 0.52916,-0.88194 0.52916,-2.95573 0,-2.92842 -0.27797,-3.39427 -2.02538,-3.39427 h -1.14962 v 3.43959 3.43958 h 1.05834 c 0.70555,0 1.23472,-0.17639 1.5875,-0.52917 z m 7.95243,3.77032 c 0.0161,-10.78624 0.0823,-11.37211 1.39353,-12.3445 0.64518,-0.47843 1.12041,-0.55394 3.48633,-0.55394 2.36592,0 2.84114,0.0755 3.48632,0.55394 1.31127,0.97239 1.37741,1.55826 1.39354,12.3445 l 0.0149,9.98802 h -1.5875 -1.5875 v -4.23334 -4.23333 h -1.71979 -1.7198 v 4.23333 4.23334 h -1.5875 -1.5875 l 0.0149,-9.98802 z m 6.59965,-5.3049 c 0,-2.89866 -0.0974,-4.27777 -0.3175,-4.49792 -0.17463,-0.17462 -0.80566,-0.3175 -1.40229,-0.3175 -0.59664,0 -1.22767,0.14288 -1.4023,0.3175 -0.22015,0.22015 -0.3175,1.59926 -0.3175,4.49792 v 4.18042 h 1.7198 1.71979 z m 7.47167,3.84969 0.0689,-11.44323 3.3632,-0.074 c 5.62896,-0.12381 6.09301,0.33039 6.24786,6.11525 0.11005,4.11125 -0.17457,5.76754 -1.17099,6.81436 l -0.65184,0.6848 1.02165,4.60687 1.02165,4.60686 -1.31552,0.0813 c -0.72354,0.0447 -1.40443,-0.0148 -1.5131,-0.13229 -0.10866,-0.11747 -0.57522,-1.99952 -1.03679,-4.18233 -1.11865,-5.29027 -0.95583,-4.89479 -2.0152,-4.89479 h -0.90821 v 4.63021 4.63021 h -1.59031 -1.59031 z m 6.13937,-1.05106 c 0.31583,-0.45092 0.41187,-1.31025 0.41187,-3.68527 0,-3.66545 -0.14314,-3.92878 -2.13556,-3.92878 h -1.30402 v 4.10104 4.10105 h 1.30792 c 1.05162,0 1.38862,-0.11523 1.71979,-0.58804 z m 7.82021,0.9774 v -11.55501 l 3.38555,0.0927 c 3.74814,0.10265 4.4078,0.33574 5.35734,1.89303 0.4384,0.719 0.51569,1.34151 0.51653,4.16009 10e-4,3.62404 -0.21091,4.28076 -1.54706,4.79247 l -0.7009,0.26843 0.83992,0.35516 c 1.56983,0.6638 1.72133,1.20393 1.62635,5.79855 -0.0846,4.09248 -0.0888,4.11711 -0.8179,4.84627 -0.72637,0.72638 -0.76808,0.73364 -4.69635,0.81809 l -3.96348,0.0852 z m 6.29223,5.20409 c 0.0498,-2.185 -0.0268,-3.39218 -0.23084,-3.63802 -0.19148,-0.23072 -0.83597,-0.36793 -1.72816,-0.36793 h -1.42282 v 3.71679 3.71679 l 1.65365,-0.0788 1.65365,-0.0788 z m -0.79485,-7.32825 c 0.54258,-0.38004 0.58803,-0.62137 0.58803,-3.12208 0,-1.75516 -0.11188,-2.82209 -0.3175,-3.02771 -0.17462,-0.17462 -0.889,-0.3175 -1.5875,-0.3175 h -1.27 v 3.43959 3.43958 h 0.99947 c 0.5497,0 1.26408,-0.18535 1.5875,-0.41188 z m 9.78563,13.22687 c -1.48394,-0.80517 -1.52468,-1.10199 -1.52468,-11.10738 0,-10.3057 0.004,-10.33007 1.90992,-11.09259 1.21446,-0.48593 4.94346,-0.52093 6.2791,-0.0589 0.5731,0.19823 1.11483,0.66053 1.45521,1.24184 0.51153,0.87361 0.54672,1.41313 0.62149,9.53027 0.089,9.65985 0.007,10.27713 -1.50745,11.29599 -0.79927,0.53786 -1.21027,0.60381 -3.70417,0.59439 -1.96253,-0.007 -3.0227,-0.12864 -3.52942,-0.40358 z m 5.30157,-2.81374 c 0.41383,-0.41383 0.45429,-15.60128 0.0436,-16.36864 -0.21755,-0.40649 -0.55775,-0.51094 -1.65365,-0.50773 -2.30152,0.007 -2.16351,-0.50316 -2.25092,8.31675 -0.0518,5.22158 0.0171,7.98811 0.20775,8.34428 0.23519,0.43947 0.55245,0.53284 1.81044,0.53284 0.8389,0 1.66815,-0.14288 1.84277,-0.3175 z m 9.33884,2.89329 c -1.08788,-0.55909 -1.64565,-1.58869 -1.80346,-3.32903 l -0.14763,-1.62801 h 1.62425 c 1.61822,0 1.62425,0.003 1.62425,0.77211 0,1.36823 0.22309,1.60914 1.49006,1.60914 1.01125,0 1.20367,-0.0915 1.42691,-0.67868 0.41622,-1.09477 0.32001,-4.40676 -0.14741,-5.0741 -0.223,-0.31837 -1.41177,-1.1274 -2.64173,-1.79785 -3.27353,-1.7844 -3.30291,-1.83936 -3.30242,-6.17724 5.3e-4,-4.15549 0.31085,-5.14731 1.85167,-5.91703 1.13309,-0.56604 4.13621,-0.62373 5.36631,-0.10308 1.55666,0.65887 1.89953,1.3039 2.00303,3.76828 l 0.0933,2.22137 h -1.4487 -1.44869 l -0.12628,-1.31414 c -0.15513,-1.61448 -0.54947,-2.12545 -1.64032,-2.12545 -1.31255,0 -1.47573,0.35651 -1.47573,3.22416 v 2.58917 l 0.99219,0.62986 c 0.5457,0.34642 1.79433,1.06746 2.77473,1.6023 0.9804,0.53485 1.90313,1.19777 2.05052,1.47317 0.14739,0.2754 0.26798,2.17925 0.26798,4.23078 0,4.40587 -0.27648,5.37602 -1.70177,5.97154 -1.13816,0.47556 -4.79232,0.50947 -5.68106,0.0527 z m 11.61616,-9.87799 c 0,-11.70009 -0.006,-11.66323 1.98995,-12.42545 1.64568,-0.62849 5.10112,-0.45514 6.12813,0.30743 1.39646,1.0369 1.39883,1.05729 1.40302,12.07803 l 0.004,10.25261 h -1.44849 -1.44849 l -0.0729,-4.16719 -0.0729,-4.16719 h -1.71979 -1.71979 l -0.0729,4.16719 -0.0729,4.16719 h -1.44849 -1.44849 z m 6.54835,-4.73634 c 0.0798,-4.47357 -0.0912,-4.98914 -1.69337,-5.10686 -1.82184,-0.13384 -1.94456,0.16183 -1.94456,4.68478 0,2.14817 0.0844,3.99017 0.18758,4.09334 0.10316,0.10316 0.90684,0.15277 1.78593,0.11024 l 1.59836,-0.0773 z M 224.13988,246.92648 c 0,-0.79646 0.80365,-1.72045 1.74333,-2.00439 0.30398,-0.0919 1.0027,0.021 1.55271,0.25083 0.95109,0.39739 1.02845,0.39113 1.58102,-0.12799 0.61761,-0.58021 1.59608,-0.72416 1.8733,-0.2756 0.3073,0.49722 -0.76536,2.20681 -1.59098,2.53567 -0.64048,0.25511 -1.02056,0.23945 -1.96829,-0.0811 -1.06182,-0.35914 -1.20426,-0.3566 -1.48437,0.0265 -0.17042,0.23306 -0.62414,0.42374 -1.00828,0.42374 -0.59008,0 -0.69844,-0.11599 -0.69844,-0.74763 z m 21.25475,-9.33228 c -0.46087,-0.13343 -1.14548,-0.60808 -1.52135,-1.05477 l -0.6834,-0.81217 v -6.71157 c 0,-6.63562 0.007,-6.71624 0.58804,-7.12345 0.32342,-0.22654 0.98418,-0.41188 1.46835,-0.41188 1.29502,0 2.42251,-0.6951 2.92539,-1.80351 0.39511,-0.87087 0.45626,-2.91797 0.57447,-19.23087 0.0728,-10.04094 0.23602,-18.46901 0.36279,-18.72905 0.53984,-1.10732 1.4179,-1.24699 7.8393,-1.24699 6.65278,0 7.21431,0.10392 7.9457,1.47054 0.31672,0.59179 0.38658,2.32497 0.38752,9.61372 l 0.001,8.89178 -2.18281,0.0769 -2.18281,0.0768 v -1.55207 c 0,-1.28028 -0.10725,-1.65283 -0.61237,-2.12737 -0.81232,-0.76313 -1.89945,-0.73336 -2.70695,0.0741 -0.53338,0.53337 -0.64943,0.91164 -0.64943,2.11667 v 1.46723 h -2.38125 -2.38125 v 2.51355 2.51354 h 1.54649 c 1.79969,0 2.51045,0.537 2.51045,1.89673 0,1.2154 -0.86181,1.80743 -2.63105,1.80743 h -1.42589 v 2.51355 2.51354 h 2.51354 2.51354 v -1.53693 c 0,-1.78358 0.33501,-2.36059 1.50381,-2.59011 0.68129,-0.13379 0.9722,-0.0356 1.52136,0.51357 0.56568,0.56568 0.679,0.92385 0.679,2.14623 v 1.46724 h 2.28609 2.28609 l -0.18936,3.77031 c -0.29806,5.9344 -1.30116,9.38835 -3.7049,12.75688 -3.25156,4.55665 -7.98147,7.02718 -13.37792,6.98757 -1.09141,-0.008 -2.36146,-0.12374 -2.82234,-0.25717 z m 25.70879,-2.34105 c -0.29104,-0.11912 -0.76729,-0.48114 -1.05833,-0.80447 -0.50713,-0.56341 -0.53229,-1.01653 -0.60421,-10.87915 l -0.075,-10.29126 h -1.5786 -1.57861 v -2.11666 -2.11667 h -1.26404 c -1.64922,0 -2.44012,-0.549 -2.44012,-1.69379 0,-1.23947 0.67747,-1.74579 2.33593,-1.74579 h 1.36823 v -2.24896 -2.24896 h 1.5875 1.5875 v -9.08864 c 0,-5.96938 0.10065,-9.37737 0.29327,-9.92992 0.56003,-1.60649 0.65836,-1.61894 12.78509,-1.61894 12.57909,0 13.87224,0.14046 17.59526,1.9111 4.73617,2.25249 7.1618,6.27103 7.1618,11.86498 0,4.07904 -1.55286,7.52042 -4.69636,10.40784 -0.61846,0.56809 -1.12448,1.13163 -1.12448,1.25232 0,0.12069 0.56555,0.50851 1.25678,0.86184 2.75193,1.40667 5.14979,4.09734 6.32279,7.09491 0.70663,1.80578 0.75481,2.17375 0.75481,5.76534 0,3.08066 -0.099,4.12315 -0.5023,5.29167 -0.86929,2.51842 -1.82012,4.0345 -3.75336,5.98465 -3.09817,3.12528 -7.03353,4.59869 -12.28278,4.59869 -2.83027,0 -3.82621,-0.39272 -4.38449,-1.72887 -0.48031,-1.14955 -0.5033,-9.05513 -0.0304,-10.44197 0.38501,-1.12898 1.67224,-1.85108 3.30086,-1.85167 2.64467,-0.001 4.15443,-1.61538 3.51294,-3.75646 -0.37744,-1.25982 -1.21851,-1.71894 -3.5949,-1.96241 -1.43259,-0.14677 -1.96082,-0.33176 -2.61384,-0.91537 l -0.81843,-0.73141 v -5.8212 c 0,-5.80364 0.002,-5.82326 0.64423,-6.50681 0.35432,-0.37709 1.07956,-0.80284 1.61163,-0.94611 1.29931,-0.34987 1.8808,-1.06037 2.04259,-2.49576 0.27441,-2.43457 -1.10652,-3.38087 -4.76738,-3.26692 l -2.44148,0.076 -0.13825,19.57916 c -0.076,10.76855 -0.16534,19.61068 -0.19844,19.64921 -0.0331,0.0385 -0.44714,0.30596 -0.92008,0.59432 -0.79228,0.48306 -1.32808,0.52305 -6.81303,0.50851 -3.27421,-0.009 -6.19124,-0.11325 -6.48229,-0.23237 z"
         id="path3748"
         inkscape:connector-curvature="0" />
      <path
         style="fill:#5c5c5c;stroke-width:0.26458335"
         d="m 197.15238,270.58689 v -1.48153 h 1.4459 c 1.15873,0 1.5003,-0.10164 1.71979,-0.51177 0.1743,-0.32568 0.2739,-3.98643 0.2739,-10.06737 v -9.5556 l 1.52135,0.0794 1.52135,0.0794 0.079,9.12812 c 0.0931,10.76155 0.0246,11.63393 -1.00463,12.78607 -0.72302,0.80939 -0.83785,0.84334 -3.15348,0.93245 l -2.40314,0.0925 z m 12.72551,1.09426 c -0.34978,-0.17976 -0.88556,-0.66278 -1.19063,-1.07339 -0.53314,-0.71759 -0.55762,-1.08791 -0.63077,-9.5399 -0.0832,-9.61707 0.008,-10.38648 1.35227,-11.38411 0.6554,-0.48643 1.11541,-0.55443 3.75091,-0.55443 2.63601,0 3.0954,0.0679 3.75092,0.55467 1.38546,1.02874 1.40037,1.14447 1.40456,10.9017 0.004,10.10926 -0.0328,10.347 -1.72497,11.05406 -1.13894,0.47587 -5.8108,0.50469 -6.71229,0.0414 z m 5.27271,-3.25447 c 0.14512,-0.38171 0.25803,-3.88715 0.25803,-8.01092 0,-8.60845 0.026,-8.50832 -2.21104,-8.50832 -0.76301,0 -1.53017,0.14288 -1.70479,0.3175 -0.45368,0.45369 -0.45368,16.10924 0,16.56292 0.17462,0.17462 1.01101,0.3175 1.85863,0.3175 1.41085,0 1.56295,-0.0574 1.79917,-0.67868 z m 7.41672,-6.39892 c 0.0161,-10.78624 0.0823,-11.37211 1.39353,-12.3445 0.64518,-0.47843 1.1204,-0.55394 3.48632,-0.55394 2.36592,0 2.84115,0.0755 3.48633,0.55394 1.31127,0.97239 1.3774,1.55826 1.39353,12.3445 l 0.0149,9.98802 h -1.5875 -1.5875 v -4.23334 -4.23333 h -1.7198 -1.71979 v 4.23333 4.23334 h -1.5875 -1.5875 l 0.0149,-9.98802 z m 6.59965,-5.3049 c 0,-2.89866 -0.0974,-4.27777 -0.3175,-4.49792 -0.17463,-0.17462 -0.80566,-0.3175 -1.4023,-0.3175 -0.59663,0 -1.22766,0.14288 -1.40229,0.3175 -0.22015,0.22015 -0.3175,1.59926 -0.3175,4.49792 v 4.18042 h 1.71979 1.7198 z m 9.10721,14.9289 c -1.62329,-0.72959 -1.69899,-1.22828 -1.69789,-11.18535 0.001,-8.51605 0.0272,-8.99885 0.53496,-9.83166 0.74792,-1.22674 1.92314,-1.6378 4.68107,-1.63731 2.77559,5.2e-4 3.94718,0.4682 4.6383,1.85167 0.41215,0.82504 0.46265,1.87201 0.46302,9.59964 5.3e-4,9.23652 -0.0665,9.79265 -1.31296,10.90557 -0.50576,0.45158 -1.02513,0.53902 -3.54225,0.59638 -2.06984,0.0472 -3.19257,-0.042 -3.76425,-0.29894 z m 5.28427,-2.96492 c 0.0883,-0.23018 0.1606,-3.95683 0.1606,-8.28145 0,-5.76285 -0.0848,-7.94775 -0.3175,-8.18045 -0.41196,-0.41196 -2.92179,-0.41196 -3.33375,0 -0.23313,0.23313 -0.3175,2.47141 -0.3175,8.42257 0,4.45779 0.0794,8.18445 0.17639,8.28146 0.097,0.097 0.91771,0.17639 1.82377,0.17639 1.25813,0 1.68534,-0.0989 1.80799,-0.41852 z m 17.88768,-8.2064 v -11.53533 l 3.55291,0.0921 c 3.90803,0.10131 4.63801,0.36471 5.4164,1.95437 0.43637,0.8912 0.70461,5.08595 0.43865,6.85956 -0.15658,1.04413 -0.33067,1.32594 -1.09916,1.77937 l -0.91312,0.53875 0.86622,0.46135 c 1.34095,0.71419 1.51944,1.32823 1.52379,5.2421 0.006,5.8095 -0.32307,6.14307 -6.06838,6.14307 h -3.71731 z m 6.55685,5.3821 c 0.094,-3.92247 -0.0189,-4.16551 -1.93595,-4.16551 h -1.4459 v 3.71679 3.71679 l 1.65365,-0.0788 1.65364,-0.0788 z m -0.73601,-7.6051 c 0.45223,-0.45223 0.52916,-0.88194 0.52916,-2.95573 0,-2.92842 -0.27797,-3.39427 -2.02538,-3.39427 h -1.14962 v 3.43959 3.43958 h 1.05834 c 0.70555,0 1.23472,-0.17639 1.5875,-0.52917 z m 7.95243,3.77032 c 0.0161,-10.78624 0.0823,-11.37211 1.39353,-12.3445 0.64518,-0.47843 1.12041,-0.55394 3.48633,-0.55394 2.36592,0 2.84114,0.0755 3.48632,0.55394 1.31127,0.97239 1.37741,1.55826 1.39354,12.3445 l 0.0149,9.98802 h -1.5875 -1.5875 v -4.23334 -4.23333 h -1.71979 -1.7198 v 4.23333 4.23334 h -1.5875 -1.5875 l 0.0149,-9.98802 z m 6.59965,-5.3049 c 0,-2.89866 -0.0974,-4.27777 -0.3175,-4.49792 -0.17463,-0.17462 -0.80566,-0.3175 -1.40229,-0.3175 -0.59664,0 -1.22767,0.14288 -1.4023,0.3175 -0.22015,0.22015 -0.3175,1.59926 -0.3175,4.49792 v 4.18042 h 1.7198 1.71979 z m 7.47167,3.84969 0.0689,-11.44323 3.3632,-0.074 c 5.62896,-0.12381 6.09301,0.33039 6.24786,6.11525 0.11005,4.11125 -0.17457,5.76754 -1.17099,6.81436 l -0.65184,0.6848 1.02165,4.60687 1.02165,4.60686 -1.31552,0.0813 c -0.72354,0.0447 -1.40443,-0.0148 -1.5131,-0.13229 -0.10866,-0.11747 -0.57522,-1.99952 -1.03679,-4.18233 -1.11865,-5.29027 -0.95583,-4.89479 -2.0152,-4.89479 h -0.90821 v 4.63021 4.63021 h -1.59031 -1.59031 z m 6.13937,-1.05106 c 0.31583,-0.45092 0.41187,-1.31025 0.41187,-3.68527 0,-3.66545 -0.14314,-3.92878 -2.13556,-3.92878 h -1.30402 v 4.10104 4.10105 h 1.30792 c 1.05162,0 1.38862,-0.11523 1.71979,-0.58804 z m 7.82021,0.9774 v -11.55501 l 3.38555,0.0927 c 3.74814,0.10265 4.4078,0.33574 5.35734,1.89303 0.4384,0.719 0.51569,1.34151 0.51653,4.16009 10e-4,3.62404 -0.21091,4.28076 -1.54706,4.79247 l -0.7009,0.26843 0.83992,0.35516 c 1.56983,0.6638 1.72133,1.20393 1.62635,5.79855 -0.0846,4.09248 -0.0888,4.11711 -0.8179,4.84627 -0.72637,0.72638 -0.76808,0.73364 -4.69635,0.81809 l -3.96348,0.0852 z m 6.29223,5.20409 c 0.0498,-2.185 -0.0268,-3.39218 -0.23084,-3.63802 -0.19148,-0.23072 -0.83597,-0.36793 -1.72816,-0.36793 h -1.42282 v 3.71679 3.71679 l 1.65365,-0.0788 1.65365,-0.0788 z m -0.79485,-7.32825 c 0.54258,-0.38004 0.58803,-0.62137 0.58803,-3.12208 0,-1.75516 -0.11188,-2.82209 -0.3175,-3.02771 -0.17462,-0.17462 -0.889,-0.3175 -1.5875,-0.3175 h -1.27 v 3.43959 3.43958 h 0.99947 c 0.5497,0 1.26408,-0.18535 1.5875,-0.41188 z m 9.78563,13.22687 c -1.48394,-0.80517 -1.52468,-1.10199 -1.52468,-11.10738 0,-10.3057 0.004,-10.33007 1.90992,-11.09259 1.21446,-0.48593 4.94346,-0.52093 6.2791,-0.0589 0.5731,0.19823 1.11483,0.66053 1.45521,1.24184 0.51153,0.87361 0.54672,1.41313 0.62149,9.53027 0.089,9.65985 0.007,10.27713 -1.50745,11.29599 -0.79927,0.53786 -1.21027,0.60381 -3.70417,0.59439 -1.96253,-0.007 -3.0227,-0.12864 -3.52942,-0.40358 z m 5.30157,-2.81374 c 0.41383,-0.41383 0.45429,-15.60128 0.0436,-16.36864 -0.21755,-0.40649 -0.55775,-0.51094 -1.65365,-0.50773 -2.30152,0.007 -2.16351,-0.50316 -2.25092,8.31675 -0.0518,5.22158 0.0171,7.98811 0.20775,8.34428 0.23519,0.43947 0.55245,0.53284 1.81044,0.53284 0.8389,0 1.66815,-0.14288 1.84277,-0.3175 z m 9.33884,2.89329 c -1.08788,-0.55909 -1.64565,-1.58869 -1.80346,-3.32903 l -0.14763,-1.62801 h 1.62425 c 1.61822,0 1.62425,0.003 1.62425,0.77211 0,1.36823 0.22309,1.60914 1.49006,1.60914 1.01125,0 1.20367,-0.0915 1.42691,-0.67868 0.41622,-1.09477 0.32001,-4.40676 -0.14741,-5.0741 -0.223,-0.31837 -1.41177,-1.1274 -2.64173,-1.79785 -3.27353,-1.7844 -3.30291,-1.83936 -3.30242,-6.17724 5.3e-4,-4.15549 0.31085,-5.14731 1.85167,-5.91703 1.13309,-0.56604 4.13621,-0.62373 5.36631,-0.10308 1.55666,0.65887 1.89953,1.3039 2.00303,3.76828 l 0.0933,2.22137 h -1.4487 -1.44869 l -0.12628,-1.31414 c -0.15513,-1.61448 -0.54947,-2.12545 -1.64032,-2.12545 -1.31255,0 -1.47573,0.35651 -1.47573,3.22416 v 2.58917 l 0.99219,0.62986 c 0.5457,0.34642 1.79433,1.06746 2.77473,1.6023 0.9804,0.53485 1.90313,1.19777 2.05052,1.47317 0.14739,0.2754 0.26798,2.17925 0.26798,4.23078 0,4.40587 -0.27648,5.37602 -1.70177,5.97154 -1.13816,0.47556 -4.79232,0.50947 -5.68106,0.0527 z m 11.61616,-9.87799 c 0,-11.70009 -0.006,-11.66323 1.98995,-12.42545 1.64568,-0.62849 5.10112,-0.45514 6.12813,0.30743 1.39646,1.0369 1.39883,1.05729 1.40302,12.07803 l 0.004,10.25261 h -1.44849 -1.44849 l -0.0729,-4.16719 -0.0729,-4.16719 h -1.71979 -1.71979 l -0.0729,4.16719 -0.0729,4.16719 h -1.44849 -1.44849 z m 6.54835,-4.73634 c 0.0798,-4.47357 -0.0912,-4.98914 -1.69337,-5.10686 -1.82184,-0.13384 -1.94456,0.16183 -1.94456,4.68478 0,2.14817 0.0844,3.99017 0.18758,4.09334 0.10316,0.10316 0.90684,0.15277 1.78593,0.11024 l 1.59836,-0.0773 z M 224.13988,246.92648 c 0,-0.79646 0.80365,-1.72045 1.74333,-2.00439 0.30398,-0.0919 1.0027,0.021 1.55271,0.25083 0.95109,0.39739 1.02845,0.39113 1.58102,-0.12799 0.61761,-0.58021 1.59608,-0.72416 1.8733,-0.2756 0.3073,0.49722 -0.76536,2.20681 -1.59098,2.53567 -0.64048,0.25511 -1.02056,0.23945 -1.96829,-0.0811 -1.06182,-0.35914 -1.20426,-0.3566 -1.48437,0.0265 -0.17042,0.23306 -0.62414,0.42374 -1.00828,0.42374 -0.59008,0 -0.69844,-0.11599 -0.69844,-0.74763 z m 21.25475,-9.33228 c -0.46087,-0.13343 -1.14548,-0.60808 -1.52135,-1.05477 l -0.6834,-0.81217 v -6.71157 c 0,-6.63562 0.007,-6.71624 0.58804,-7.12345 0.32342,-0.22654 0.98418,-0.41188 1.46835,-0.41188 1.29502,0 2.42251,-0.6951 2.92539,-1.80351 0.39511,-0.87087 0.45626,-2.91797 0.57447,-19.23087 0.0728,-10.04094 0.23602,-18.46901 0.36279,-18.72905 0.53984,-1.10732 1.4179,-1.24699 7.8393,-1.24699 6.65278,0 7.21431,0.10392 7.9457,1.47054 0.31672,0.59179 0.38658,2.32497 0.38752,9.61372 l 0.001,8.89178 -2.18281,0.0769 -2.18281,0.0768 v -1.55207 c 0,-1.28028 -0.10725,-1.65283 -0.61237,-2.12737 -0.81232,-0.76313 -1.89945,-0.73336 -2.70695,0.0741 -0.53338,0.53337 -0.64943,0.91164 -0.64943,2.11667 v 1.46723 h -2.38125 -2.38125 v 2.51355 2.51354 h 1.54649 c 1.79969,0 2.51045,0.537 2.51045,1.89673 0,1.2154 -0.86181,1.80743 -2.63105,1.80743 h -1.42589 v 2.51355 2.51354 h 2.51354 2.51354 v -1.53693 c 0,-1.78358 0.33501,-2.36059 1.50381,-2.59011 0.68129,-0.13379 0.9722,-0.0356 1.52136,0.51357 0.56568,0.56568 0.679,0.92385 0.679,2.14623 v 1.46724 h 2.28609 2.28609 l -0.18936,3.77031 c -0.29806,5.9344 -1.30116,9.38835 -3.7049,12.75688 -3.25156,4.55665 -7.98147,7.02718 -13.37792,6.98757 -1.09141,-0.008 -2.36146,-0.12374 -2.82234,-0.25717 z m 22.46765,-24.24724 -1.65365,-0.0939 v -2.10405 -2.10404 h -1.26404 c -1.64922,0 -2.44012,-0.549 -2.44012,-1.69379 0,-1.23947 0.67747,-1.74579 2.33593,-1.74579 h 1.36823 v -2.24896 -2.24896 h 2.24896 2.24896 v 1.4142 c 0,1.58863 0.50028,2.28997 1.63347,2.28997 1.02651,0 1.54153,-0.77108 1.54153,-2.30793 v -1.34021 l 2.18281,-0.11422 c 1.20055,-0.0628 2.27211,-0.0684 2.38125,-0.0124 0.10914,0.056 0.19844,1.0473 0.19844,2.20288 v 2.10105 h 1.07573 c 1.08602,0 2.0686,0.36432 2.42595,0.8995 0.10691,0.16012 0.19621,0.67132 0.19843,1.13602 0.005,1.11774 -0.79891,1.66864 -2.43607,1.66864 l -1.26404,1e-5 v 2.25926 2.25926 l -2.31511,-0.0764 -2.3151,-0.0764 -0.13455,-1.51039 c -0.074,-0.83071 -0.2526,-1.62101 -0.39688,-1.7562 -0.59877,-0.56109 -1.38022,-0.57095 -2.07283,-0.0261 -0.6067,0.47723 -0.70303,0.74976 -0.70303,1.98901 0,1.3279 -0.0448,1.43217 -0.59531,1.38502 -0.32743,-0.028 -1.33946,-0.0933 -2.24896,-0.14491 z"
         id="path3746"
         inkscape:connector-curvature="0" />
      <path
         style="fill:#135f92;stroke-width:0.26458335"
         d="m 197.15238,270.69286 v -1.32292 h 1.28191 c 2.24369,0 2.15768,0.42007 2.15768,-10.53802 v -9.57031 h 1.4552 1.45521 l -4.2e-4,10.12031 c -3.7e-4,9.10497 -0.0468,10.21322 -0.46302,11.04636 -0.57069,1.14238 -1.63875,1.55198 -4.10063,1.57256 l -1.78593,0.0149 z m 12.97765,0.99198 c -0.56182,-0.20339 -1.12153,-0.6867 -1.45521,-1.25656 -0.51779,-0.88432 -0.54223,-1.33142 -0.54223,-9.92188 0,-11.5605 -0.14186,-11.24479 5.05267,-11.24479 3.20451,0 4.04594,0.30104 4.70124,1.68198 0.37288,0.7858 0.43255,2.10243 0.43255,9.54515 0,9.40848 -0.0784,9.9878 -1.47597,10.90351 -0.91953,0.6025 -5.32647,0.79458 -6.71305,0.29259 z m 4.79475,-2.75278 c 0.44842,-0.40581 0.48385,-1.02352 0.48385,-8.43427 0,-6.09333 -0.0791,-8.062 -0.33221,-8.2721 -0.53612,-0.44494 -1.72017,-0.65378 -2.68282,-0.47319 -1.44885,0.27181 -1.51619,0.70805 -1.42859,9.25582 0.0736,7.17992 0.1071,7.6324 0.59159,7.98638 0.71315,0.52105 2.76538,0.48288 3.36818,-0.0626 z m 7.94963,-7.52154 0.0748,-10.60526 0.86407,-0.77182 c 0.83927,-0.74968 0.94444,-0.77183 3.66448,-0.77183 h 2.80041 l 0.87282,0.87283 c 1.16042,1.16041 1.23865,2.05499 1.13844,13.01779 l -0.0798,8.73125 h -1.4552 -1.45521 l -0.0729,-4.16718 -0.0729,-4.16719 h -1.71307 -1.71308 v 4.23333 4.23334 h -1.46391 -1.46391 z m 6.29256,-4.87942 v -4.37217 l -0.72485,-0.27559 c -0.91055,-0.34619 -2.34852,-0.0932 -2.5569,0.44981 -0.0868,0.22623 -0.15784,2.24705 -0.15784,4.49072 v 4.07941 h 1.71979 1.7198 z m 9.54978,15.13901 c -0.49569,-0.17368 -1.15054,-0.65195 -1.45521,-1.0628 -0.53727,-0.72451 -0.55395,-1.02405 -0.55395,-9.94796 0,-10.02041 0.0333,-10.26559 1.49886,-11.02344 0.8795,-0.45481 5.96402,-0.51894 6.91163,-0.0872 0.3466,0.15792 0.85822,0.66393 1.13693,1.12448 0.47292,0.78145 0.50675,1.43785 0.50675,9.83318 0,8.59046 -0.0245,9.03756 -0.54223,9.92188 -0.69325,1.18395 -1.76919,1.55763 -4.48486,1.55763 -1.16416,0 -2.52223,-0.14211 -3.01792,-0.3158 z m 4.7488,-2.84042 c 0.5235,-0.5235 0.53785,-0.78556 0.46302,-8.45381 -0.0591,-6.05717 -0.15792,-7.99416 -0.42119,-8.25714 -0.19906,-0.19885 -0.96038,-0.34359 -1.80726,-0.34359 -2.2786,0 -2.2144,-0.25458 -2.2144,8.78182 0,7.40186 0.0241,7.77871 0.52916,8.28381 0.73729,0.73728 2.70863,0.73095 3.45067,-0.0111 z m 18.24517,-8.16619 v -11.40189 h 3.32043 c 5.24286,0 5.6754,0.45828 5.6754,6.01314 0,3.21111 -0.0363,3.45229 -0.59531,3.95548 -0.32743,0.29472 -0.83344,0.62744 -1.12448,0.73937 -0.48433,0.18627 -0.46172,0.23231 0.2668,0.54327 1.60919,0.68687 1.84095,1.21523 1.94042,4.42374 0.11939,3.85125 -0.0813,5.06024 -1.01329,6.10377 l -0.75298,0.8431 -3.8585,0.091 -3.85849,0.0909 z m 6.10822,8.15447 c 0.50513,-0.50513 0.54442,-0.79903 0.46302,-3.46347 -0.0821,-2.68607 -0.13732,-2.95063 -0.71358,-3.41678 -0.40262,-0.3257 -1.03736,-0.50528 -1.78593,-0.50528 h -1.16132 v 3.96875 3.96875 h 1.32292 c 0.98835,0 1.46251,-0.13959 1.87489,-0.55197 z m -0.50666,-10.46924 c 0.40902,-0.37016 0.48385,-0.85888 0.48385,-3.16 0,-2.51302 -0.0452,-2.75375 -0.58804,-3.13399 -0.32342,-0.22654 -1.03779,-0.41188 -1.5875,-0.41188 h -0.99946 v 3.57187 3.57188 h 1.10365 c 0.65566,0 1.30005,-0.17775 1.5875,-0.43788 z m 8.21418,3.07592 0.0749,-10.61939 0.86407,-0.77182 c 0.83927,-0.74968 0.94445,-0.77183 3.66448,-0.77183 h 2.80041 l 0.89958,0.89958 0.89958,0.89959 v 10.49132 10.49133 l -1.38906,-0.08 -1.38906,-0.08 -0.0729,-4.16718 -0.0729,-4.16719 h -1.70635 -1.70636 l -0.0729,4.16719 -0.0729,4.16718 -1.3978,0.0803 -1.39779,0.0803 z m 6.29259,-4.89355 v -4.37217 l -0.72485,-0.27559 c -0.91055,-0.34619 -2.34852,-0.0932 -2.5569,0.44981 -0.0868,0.22623 -0.15784,2.24705 -0.15784,4.49072 v 4.07941 h 1.7198 1.71979 z m 7.67291,4.10759 v -11.37708 h 3.7 3.69999 l 0.86407,0.77141 0.86407,0.77141 0.0851,4.31149 c 0.0988,5.00701 0.002,5.7376 -0.88482,6.69481 -0.7593,0.8193 -0.79787,1.29276 -0.26957,3.30852 0.53039,2.02368 1.46614,6.23517 1.46614,6.59855 0,0.18103 -0.51721,0.29798 -1.31787,0.29798 -1.14991,0 -1.33525,-0.0759 -1.4542,-0.59532 -0.075,-0.32742 -0.52373,-2.38125 -0.99723,-4.56406 l -0.8609,-3.96875 -0.99219,-0.0821 -0.99219,-0.0821 v 4.64617 4.64619 h -1.45521 -1.45521 z m 6.0325,-0.84666 c 0.21506,-0.21506 0.3175,-1.45092 0.3175,-3.83036 0,-3.42554 -0.0159,-3.52331 -0.64123,-3.93301 -0.38476,-0.25211 -1.04615,-0.38683 -1.65364,-0.33683 l -1.01242,0.0833 -0.0729,4.16719 -0.0729,4.16719 h 1.40902 c 0.77495,0 1.55188,-0.14288 1.7265,-0.3175 z m 7.72584,0.84666 v -11.37708 l 3.37344,0.001 c 2.8735,7.9e-4 3.49836,0.0772 4.21644,0.51501 1.24437,0.75874 1.46751,1.40238 1.60496,4.62939 0.15611,3.66532 -0.0701,4.64476 -1.19504,5.17336 -1.05336,0.49497 -1.06038,0.64491 -0.0498,1.0635 1.32807,0.55011 1.57507,1.38766 1.57461,5.3395 -5.3e-4,5.62609 -0.3746,5.99191 -6.15115,6.01748 l -3.37344,0.0149 z m 6.22005,8.29424 c 0.36787,-0.36787 0.42319,-0.93103 0.34963,-3.55938 -0.0557,-1.9886 -0.2041,-3.23881 -0.40881,-3.44305 -0.17678,-0.17638 -0.98045,-0.37534 -1.78594,-0.44213 l -1.46452,-0.12145 v 4.00151 4.00151 h 1.43631 c 0.98258,0 1.57437,-0.13805 1.87333,-0.43701 z m -0.21111,-10.94007 c 0.18679,-0.37075 0.33497,-1.62608 0.33716,-2.8563 0.004,-1.99435 -0.0569,-2.2556 -0.66128,-2.86002 -0.51828,-0.51827 -0.88349,-0.64709 -1.65365,-0.58329 l -0.98846,0.0819 -0.0739,3.51983 -0.0739,3.51982 1.39041,-0.0802 c 1.17676,-0.0679 1.44162,-0.18188 1.72367,-0.7417 z m 9.98377,13.75684 c -0.44458,-0.13832 -1.09943,-0.5612 -1.45521,-0.93973 l -0.64688,-0.68823 -0.0821,-8.90871 c -0.0913,-9.90379 -0.008,-10.6036 1.3533,-11.43392 0.70523,-0.43001 1.33852,-0.51569 3.81787,-0.51651 2.91059,-0.001 2.99035,0.0151 3.83645,0.77079 l 0.86408,0.77178 0.0761,9.33588 c 0.0814,9.98488 0.0339,10.42343 -1.21745,11.24334 -0.80872,0.52989 -5.22501,0.77635 -6.54613,0.36531 z m 4.3976,-2.65365 c 0.48903,-0.26172 0.51177,-0.63733 0.51177,-8.45166 0,-8.15074 -0.002,-8.17914 -0.58804,-8.58965 -0.32342,-0.22654 -1.0113,-0.41188 -1.52863,-0.41188 -0.51732,0 -1.2052,0.18534 -1.52862,0.41188 -0.58573,0.41025 -0.58804,0.44351 -0.58804,8.45166 0,8.00815 0.002,8.04141 0.58804,8.45167 0.67053,0.46966 2.37364,0.54465 3.13352,0.13798 z m 10.12479,2.75099 c -1.39239,-0.30818 -2.46418,-2.15968 -2.46779,-4.26303 l -0.001,-0.8599 h 1.45521 c 1.44051,0 1.45521,0.008 1.45521,0.79375 0,1.52825 1.9877,2.47241 3.02381,1.43631 0.53156,-0.53156 0.59917,-5.07547 0.085,-5.71591 -0.1819,-0.2266 -1.4872,-1.0841 -2.90067,-1.90557 -3.13275,-1.82068 -3.2267,-2.02471 -3.07173,-6.67069 0.16014,-4.80069 0.67195,-5.40039 4.60893,-5.40039 3.61264,0 4.60462,0.91016 4.60462,4.22483 v 1.596 h -1.45521 -1.45521 v -1.14005 c 0,-1.52635 -0.4847,-2.14078 -1.68879,-2.14078 -0.52637,0 -1.10587,0.14869 -1.28777,0.33042 -0.42322,0.42283 -0.61305,4.82153 -0.2383,5.52176 0.15133,0.28276 1.36094,1.09075 2.68803,1.79552 3.43073,1.82194 3.43725,1.83356 3.43725,6.12835 0,5.37758 -0.55159,6.21097 -4.1895,6.32997 -1.11552,0.0365 -2.28626,0.009 -2.60165,-0.0606 z m 11.02448,-9.89393 c 0,-11.06862 0.0549,-11.50206 1.55352,-12.27705 0.55948,-0.28932 1.54433,-0.41415 3.26199,-0.41346 2.99287,0.001 3.98947,0.45947 4.4272,2.03577 0.17293,0.62275 0.2799,4.76031 0.28081,10.86168 l 10e-4,9.85573 h -1.45521 -1.45521 v -4.23334 -4.23333 h -1.85208 -1.85208 v 4.23333 4.23334 h -1.45521 -1.45521 z m 6.61458,-5.26817 c 0,-4.05916 -0.0222,-4.23387 -0.58804,-4.6302 -0.32341,-0.22654 -0.89224,-0.41188 -1.26404,-0.41188 -0.3718,0 -0.94063,0.18534 -1.26404,0.41188 -0.56586,0.39633 -0.58804,0.57104 -0.58804,4.6302 v 4.21834 h 1.85208 1.85208 z m -127.26458,-9.68431 c 0,-0.37042 0.30448,-0.97797 0.67661,-1.3501 0.69979,-0.69979 0.78258,-0.70515 3.22295,-0.20835 0.65427,0.13319 0.89554,0.0736 1.02049,-0.25203 0.0983,-0.25624 0.46918,-0.42646 0.92909,-0.42646 0.99144,0 1.02271,0.71199 0.0805,1.83178 -0.75051,0.89194 -1.4905,1.01839 -2.92467,0.49979 -0.73691,-0.26647 -0.94414,-0.24635 -1.36254,0.13229 -0.27139,0.24561 -0.75196,0.44656 -1.06792,0.44656 -0.43912,0 -0.57448,-0.15868 -0.57448,-0.67348 z m 21.25475,-9.40643 c -0.46087,-0.13343 -1.14548,-0.60808 -1.52135,-1.05477 l -0.6834,-0.81217 v -6.71157 c 0,-6.63562 0.007,-6.71624 0.58804,-7.12345 0.32342,-0.22654 0.98418,-0.41188 1.46835,-0.41188 1.29502,0 2.42251,-0.6951 2.92539,-1.80351 0.39511,-0.87087 0.45626,-2.91797 0.57447,-19.23087 0.0728,-10.04094 0.23602,-18.46901 0.36279,-18.72905 0.53984,-1.10732 1.4179,-1.24699 7.8393,-1.24699 6.65278,0 7.21431,0.10392 7.9457,1.47054 0.31672,0.59179 0.38658,2.32497 0.38752,9.61372 l 0.001,8.89178 -2.18281,0.0769 -2.18281,0.0768 v -1.55207 c 0,-1.28028 -0.10725,-1.65283 -0.61237,-2.12737 -0.81232,-0.76313 -1.89945,-0.73336 -2.70695,0.0741 -0.53338,0.53337 -0.64943,0.91164 -0.64943,2.11667 v 1.46723 h -2.38125 -2.38125 v 2.51355 2.51354 h 1.54649 c 1.79969,0 2.51045,0.537 2.51045,1.89673 0,1.2154 -0.86181,1.80743 -2.63105,1.80743 h -1.42589 v 2.51355 2.51354 h 2.51354 2.51354 v -1.53693 c 0,-1.78358 0.33501,-2.36059 1.50381,-2.59011 0.68129,-0.13379 0.9722,-0.0356 1.52136,0.51357 0.56568,0.56568 0.679,0.92385 0.679,2.14623 v 1.46724 h 2.28609 2.28609 l -0.18936,3.77031 c -0.29806,5.9344 -1.30116,9.38835 -3.7049,12.75688 -3.25156,4.55665 -7.98147,7.02718 -13.37792,6.98757 -1.09141,-0.008 -2.36146,-0.12374 -2.82234,-0.25717 z m 20.814,-26.43259 v -2.11667 h -1.26404 c -1.64922,0 -2.44012,-0.549 -2.44012,-1.69379 0,-1.23947 0.67747,-1.74579 2.33593,-1.74579 h 1.36823 v -2.24896 -2.24896 h 2.11667 2.11667 v 1.33494 c 0,1.06457 0.13153,1.46648 0.64943,1.98438 0.35719,0.35719 0.89838,0.64943 1.20265,0.64943 0.30427,0 0.84546,-0.29224 1.20265,-0.64943 0.5179,-0.5179 0.64943,-0.91981 0.64943,-1.98438 v -1.33494 h 2.10597 2.10597 l 0.0768,2.18281 0.0768,2.18282 1.51038,0.13455 c 1.75243,0.15612 2.14969,0.45505 2.14969,1.61765 0,1.19225 -0.86157,1.81967 -2.49876,1.81967 h -1.29361 v 2.11667 2.11666 h -2.11666 -2.11667 v -1.27302 c 0,-1.51503 -0.68441,-2.43114 -1.81627,-2.43114 -1.13899,0 -1.88789,0.97762 -1.88789,2.46445 v 1.23971 h -2.11667 -2.11667 z"
         id="path3744"
         inkscape:connector-curvature="0" />
      <path
         style="fill:#030303;stroke-width:0.26458335"
         d="m 197.15238,270.69286 v -1.32292 h 1.28191 c 2.24369,0 2.15768,0.42007 2.15768,-10.53802 v -9.57031 h 1.4552 1.45521 l -4.2e-4,10.12031 c -3.7e-4,9.10497 -0.0468,10.21322 -0.46302,11.04636 -0.57069,1.14238 -1.63875,1.55198 -4.10063,1.57256 l -1.78593,0.0149 z m 12.97765,0.99198 c -0.56182,-0.20339 -1.12153,-0.6867 -1.45521,-1.25656 -0.51779,-0.88432 -0.54223,-1.33142 -0.54223,-9.92188 0,-11.5605 -0.14186,-11.24479 5.05267,-11.24479 3.20451,0 4.04594,0.30104 4.70124,1.68198 0.37288,0.7858 0.43255,2.10243 0.43255,9.54515 0,9.40848 -0.0784,9.9878 -1.47597,10.90351 -0.91953,0.6025 -5.32647,0.79458 -6.71305,0.29259 z m 4.79475,-2.75278 c 0.44842,-0.40581 0.48385,-1.02352 0.48385,-8.43427 0,-6.09333 -0.0791,-8.062 -0.33221,-8.2721 -0.53612,-0.44494 -1.72017,-0.65378 -2.68282,-0.47319 -1.44885,0.27181 -1.51619,0.70805 -1.42859,9.25582 0.0736,7.17992 0.1071,7.6324 0.59159,7.98638 0.71315,0.52105 2.76538,0.48288 3.36818,-0.0626 z m 7.94963,-7.52154 0.0748,-10.60526 0.86407,-0.77182 c 0.83927,-0.74968 0.94444,-0.77183 3.66448,-0.77183 h 2.80041 l 0.87282,0.87283 c 1.16042,1.16041 1.23865,2.05499 1.13844,13.01779 l -0.0798,8.73125 h -1.4552 -1.45521 l -0.0729,-4.16718 -0.0729,-4.16719 h -1.71307 -1.71308 v 4.23333 4.23334 h -1.46391 -1.46391 z m 6.29256,-4.87942 v -4.37217 l -0.72485,-0.27559 c -0.91055,-0.34619 -2.34852,-0.0932 -2.5569,0.44981 -0.0868,0.22623 -0.15784,2.24705 -0.15784,4.49072 v 4.07941 h 1.71979 1.7198 z m 9.54978,15.13901 c -0.49569,-0.17368 -1.15054,-0.65195 -1.45521,-1.0628 -0.53727,-0.72451 -0.55395,-1.02405 -0.55395,-9.94796 0,-10.02041 0.0333,-10.26559 1.49886,-11.02344 0.8795,-0.45481 5.96402,-0.51894 6.91163,-0.0872 0.3466,0.15792 0.85822,0.66393 1.13693,1.12448 0.47292,0.78145 0.50675,1.43785 0.50675,9.83318 0,8.59046 -0.0245,9.03756 -0.54223,9.92188 -0.69325,1.18395 -1.76919,1.55763 -4.48486,1.55763 -1.16416,0 -2.52223,-0.14211 -3.01792,-0.3158 z m 4.7488,-2.84042 c 0.5235,-0.5235 0.53785,-0.78556 0.46302,-8.45381 -0.0591,-6.05717 -0.15792,-7.99416 -0.42119,-8.25714 -0.19906,-0.19885 -0.96038,-0.34359 -1.80726,-0.34359 -2.2786,0 -2.2144,-0.25458 -2.2144,8.78182 0,7.40186 0.0241,7.77871 0.52916,8.28381 0.73729,0.73728 2.70863,0.73095 3.45067,-0.0111 z m 18.24517,-8.16619 v -11.40189 h 3.32043 c 5.24286,0 5.6754,0.45828 5.6754,6.01314 0,3.21111 -0.0363,3.45229 -0.59531,3.95548 -0.32743,0.29472 -0.83344,0.62744 -1.12448,0.73937 -0.48433,0.18627 -0.46172,0.23231 0.2668,0.54327 1.60919,0.68687 1.84095,1.21523 1.94042,4.42374 0.11939,3.85125 -0.0813,5.06024 -1.01329,6.10377 l -0.75298,0.8431 -3.8585,0.091 -3.85849,0.0909 z m 6.10822,8.15447 c 0.50513,-0.50513 0.54442,-0.79903 0.46302,-3.46347 -0.0821,-2.68607 -0.13732,-2.95063 -0.71358,-3.41678 -0.40262,-0.3257 -1.03736,-0.50528 -1.78593,-0.50528 h -1.16132 v 3.96875 3.96875 h 1.32292 c 0.98835,0 1.46251,-0.13959 1.87489,-0.55197 z m -0.50666,-10.46924 c 0.40902,-0.37016 0.48385,-0.85888 0.48385,-3.16 0,-2.51302 -0.0452,-2.75375 -0.58804,-3.13399 -0.32342,-0.22654 -1.03779,-0.41188 -1.5875,-0.41188 h -0.99946 v 3.57187 3.57188 h 1.10365 c 0.65566,0 1.30005,-0.17775 1.5875,-0.43788 z m 8.21418,3.07592 0.0749,-10.61939 0.86407,-0.77182 c 0.83927,-0.74968 0.94445,-0.77183 3.66448,-0.77183 h 2.80041 l 0.89958,0.89958 0.89958,0.89959 v 10.49132 10.49133 l -1.38906,-0.08 -1.38906,-0.08 -0.0729,-4.16718 -0.0729,-4.16719 h -1.70635 -1.70636 l -0.0729,4.16719 -0.0729,4.16718 -1.3978,0.0803 -1.39779,0.0803 z m 6.29259,-4.89355 v -4.37217 l -0.72485,-0.27559 c -0.91055,-0.34619 -2.34852,-0.0932 -2.5569,0.44981 -0.0868,0.22623 -0.15784,2.24705 -0.15784,4.49072 v 4.07941 h 1.7198 1.71979 z m 7.67291,4.10759 v -11.37708 h 3.7 3.69999 l 0.86407,0.77141 0.86407,0.77141 0.0851,4.31149 c 0.0988,5.00701 0.002,5.7376 -0.88482,6.69481 -0.7593,0.8193 -0.79787,1.29276 -0.26957,3.30852 0.53039,2.02368 1.46614,6.23517 1.46614,6.59855 0,0.18103 -0.51721,0.29798 -1.31787,0.29798 -1.14991,0 -1.33525,-0.0759 -1.4542,-0.59532 -0.075,-0.32742 -0.52373,-2.38125 -0.99723,-4.56406 l -0.8609,-3.96875 -0.99219,-0.0821 -0.99219,-0.0821 v 4.64617 4.64619 h -1.45521 -1.45521 z m 6.0325,-0.84666 c 0.21506,-0.21506 0.3175,-1.45092 0.3175,-3.83036 0,-3.42554 -0.0159,-3.52331 -0.64123,-3.93301 -0.38476,-0.25211 -1.04615,-0.38683 -1.65364,-0.33683 l -1.01242,0.0833 -0.0729,4.16719 -0.0729,4.16719 h 1.40902 c 0.77495,0 1.55188,-0.14288 1.7265,-0.3175 z m 7.72584,0.84666 v -11.37708 l 3.37344,0.001 c 2.8735,7.9e-4 3.49836,0.0772 4.21644,0.51501 1.24437,0.75874 1.46751,1.40238 1.60496,4.62939 0.15611,3.66532 -0.0701,4.64476 -1.19504,5.17336 -1.05336,0.49497 -1.06038,0.64491 -0.0498,1.0635 1.32807,0.55011 1.57507,1.38766 1.57461,5.3395 -5.3e-4,5.62609 -0.3746,5.99191 -6.15115,6.01748 l -3.37344,0.0149 z m 6.22005,8.29424 c 0.36787,-0.36787 0.42319,-0.93103 0.34963,-3.55938 -0.0557,-1.9886 -0.2041,-3.23881 -0.40881,-3.44305 -0.17678,-0.17638 -0.98045,-0.37534 -1.78594,-0.44213 l -1.46452,-0.12145 v 4.00151 4.00151 h 1.43631 c 0.98258,0 1.57437,-0.13805 1.87333,-0.43701 z m -0.21111,-10.94007 c 0.18679,-0.37075 0.33497,-1.62608 0.33716,-2.8563 0.004,-1.99435 -0.0569,-2.2556 -0.66128,-2.86002 -0.51828,-0.51827 -0.88349,-0.64709 -1.65365,-0.58329 l -0.98846,0.0819 -0.0739,3.51983 -0.0739,3.51982 1.39041,-0.0802 c 1.17676,-0.0679 1.44162,-0.18188 1.72367,-0.7417 z m 9.98377,13.75684 c -0.44458,-0.13832 -1.09943,-0.5612 -1.45521,-0.93973 l -0.64688,-0.68823 -0.0821,-8.90871 c -0.0913,-9.90379 -0.008,-10.6036 1.3533,-11.43392 0.70523,-0.43001 1.33852,-0.51569 3.81787,-0.51651 2.91059,-0.001 2.99035,0.0151 3.83645,0.77079 l 0.86408,0.77178 0.0761,9.33588 c 0.0814,9.98488 0.0339,10.42343 -1.21745,11.24334 -0.80872,0.52989 -5.22501,0.77635 -6.54613,0.36531 z m 4.3976,-2.65365 c 0.48903,-0.26172 0.51177,-0.63733 0.51177,-8.45166 0,-8.15074 -0.002,-8.17914 -0.58804,-8.58965 -0.32342,-0.22654 -1.0113,-0.41188 -1.52863,-0.41188 -0.51732,0 -1.2052,0.18534 -1.52862,0.41188 -0.58573,0.41025 -0.58804,0.44351 -0.58804,8.45166 0,8.00815 0.002,8.04141 0.58804,8.45167 0.67053,0.46966 2.37364,0.54465 3.13352,0.13798 z m 10.12479,2.75099 c -1.39239,-0.30818 -2.46418,-2.15968 -2.46779,-4.26303 l -0.001,-0.8599 h 1.45521 c 1.44051,0 1.45521,0.008 1.45521,0.79375 0,1.52825 1.9877,2.47241 3.02381,1.43631 0.53156,-0.53156 0.59917,-5.07547 0.085,-5.71591 -0.1819,-0.2266 -1.4872,-1.0841 -2.90067,-1.90557 -3.13275,-1.82068 -3.2267,-2.02471 -3.07173,-6.67069 0.16014,-4.80069 0.67195,-5.40039 4.60893,-5.40039 3.61264,0 4.60462,0.91016 4.60462,4.22483 v 1.596 h -1.45521 -1.45521 v -1.14005 c 0,-1.52635 -0.4847,-2.14078 -1.68879,-2.14078 -0.52637,0 -1.10587,0.14869 -1.28777,0.33042 -0.42322,0.42283 -0.61305,4.82153 -0.2383,5.52176 0.15133,0.28276 1.36094,1.09075 2.68803,1.79552 3.43073,1.82194 3.43725,1.83356 3.43725,6.12835 0,5.37758 -0.55159,6.21097 -4.1895,6.32997 -1.11552,0.0365 -2.28626,0.009 -2.60165,-0.0606 z m 11.02448,-9.89393 c 0,-11.06862 0.0549,-11.50206 1.55352,-12.27705 0.55948,-0.28932 1.54433,-0.41415 3.26199,-0.41346 2.99287,0.001 3.98947,0.45947 4.4272,2.03577 0.17293,0.62275 0.2799,4.76031 0.28081,10.86168 l 10e-4,9.85573 h -1.45521 -1.45521 v -4.23334 -4.23333 h -1.85208 -1.85208 v 4.23333 4.23334 h -1.45521 -1.45521 z m 6.61458,-5.26817 c 0,-4.05916 -0.0222,-4.23387 -0.58804,-4.6302 -0.32341,-0.22654 -0.89224,-0.41188 -1.26404,-0.41188 -0.3718,0 -0.94063,0.18534 -1.26404,0.41188 -0.56586,0.39633 -0.58804,0.57104 -0.58804,4.6302 v 4.21834 h 1.85208 1.85208 z m -127.26458,-9.68431 c 0,-0.37042 0.30448,-0.97797 0.67661,-1.3501 0.69979,-0.69979 0.78258,-0.70515 3.22295,-0.20835 0.65427,0.13319 0.89554,0.0736 1.02049,-0.25203 0.0983,-0.25624 0.46918,-0.42646 0.92909,-0.42646 0.99144,0 1.02271,0.71199 0.0805,1.83178 -0.75051,0.89194 -1.4905,1.01839 -2.92467,0.49979 -0.73691,-0.26647 -0.94414,-0.24635 -1.36254,0.13229 -0.27139,0.24561 -0.75196,0.44656 -1.06792,0.44656 -0.43912,0 -0.57448,-0.15868 -0.57448,-0.67348 z"
         id="path3742"
         inkscape:connector-curvature="0" />
    </g>
  </g>
</svg>
